<?xml version="1.0" encoding="utf-8"?>
<!-- Generator: Adobe Illustrator 17.0.0, SVG Export Plug-In . SVG Version: 6.00 Build 0)  -->
<!DOCTYPE svg PUBLIC "-//W3C//DTD SVG 1.1//EN" "http://www.w3.org/Graphics/SVG/1.1/DTD/svg11.dtd">
<svg version="1.1" id="Layer_1" xmlns="http://www.w3.org/2000/svg" xmlns:xlink="http://www.w3.org/1999/xlink" x="0px" y="0px"
	 width="75px" height="75px" viewBox="0 0 75 75" enable-background="new 0 0 75 75" xml:space="preserve">
<circle fill="#F79452" cx="37.782" cy="37.54" r="36.506"/>
<g>
	<g>
		<path fill="#FFFFFF" d="M37.955,57.676c-11.283,0-20.461-9.179-20.461-20.461s9.179-20.461,20.461-20.461
			s20.461,9.179,20.461,20.461S49.238,57.676,37.955,57.676z M37.955,19.676c-9.671,0-17.539,7.868-17.539,17.539
			s7.868,17.539,17.539,17.539s17.539-7.868,17.539-17.539S47.626,19.676,37.955,19.676z"/>
	</g>
	<g>
		<path fill="#FFFFFF" d="M38.833,39.458h-14.5c-0.829,0-1.5-0.671-1.5-1.5s0.671-1.5,1.5-1.5h13v-9c0-0.829,0.671-1.5,1.5-1.5
			s1.5,0.671,1.5,1.5v10.5C40.333,38.787,39.662,39.458,38.833,39.458z"/>
	</g>
</g>
</svg>
