<?xml version="1.0" encoding="utf-8"?>
<!-- Generator: Adobe Illustrator 17.0.0, SVG Export Plug-In . SVG Version: 6.00 Build 0)  -->
<!DOCTYPE svg PUBLIC "-//W3C//DTD SVG 1.1//EN" "http://www.w3.org/Graphics/SVG/1.1/DTD/svg11.dtd">
<svg version="1.1" id="Layer_1" xmlns="http://www.w3.org/2000/svg" xmlns:xlink="http://www.w3.org/1999/xlink" x="0px" y="0px"
	 width="17px" height="20px" viewBox="0 0 17 20" enable-background="new 0 0 17 20" xml:space="preserve">
<path fill="#2CADE3" d="M9.144,10.014l6.891-8.269c0.177-0.212,0.148-0.528-0.064-0.705c-0.213-0.176-0.528-0.147-0.705,0.064
	L8.493,9.233L1.72,1.105c-0.177-0.211-0.491-0.24-0.705-0.064C0.803,1.218,0.774,1.533,0.951,1.746l6.891,8.269l-6.891,8.269
	c-0.177,0.212-0.148,0.528,0.064,0.705c0.094,0.078,0.207,0.116,0.32,0.116c0.144,0,0.286-0.061,0.385-0.18l6.773-8.128l6.773,8.128
	c0.099,0.119,0.241,0.18,0.385,0.18c0.113,0,0.226-0.038,0.32-0.116c0.212-0.177,0.241-0.492,0.064-0.705L9.144,10.014z"/>
</svg>
