<?xml version="1.0" encoding="utf-8"?>
<!-- Generator: Adobe Illustrator 17.0.0, SVG Export Plug-In . SVG Version: 6.00 Build 0)  -->
<!DOCTYPE svg PUBLIC "-//W3C//DTD SVG 1.1//EN" "http://www.w3.org/Graphics/SVG/1.1/DTD/svg11.dtd">
<svg version="1.1" id="Layer_1" xmlns="http://www.w3.org/2000/svg" xmlns:xlink="http://www.w3.org/1999/xlink" x="0px" y="0px"
	 width="18.125px" height="26.438px" viewBox="0 0 18.125 26.438" enable-background="new 0 0 18.125 26.438" xml:space="preserve">
<g>
	<g>
		<g>
			<path fill="#2CADE3" d="M15.179,25.75H3.071c-1.349,0-2.446-1.097-2.446-2.446V3.196c0-1.349,1.097-2.446,2.446-2.446h12.107
				c1.349,0,2.446,1.097,2.446,2.446v20.107C17.625,24.653,16.528,25.75,15.179,25.75z M3.071,1.75
				c-0.797,0-1.446,0.649-1.446,1.446v20.107c0,0.797,0.649,1.446,1.446,1.446h12.107c0.797,0,1.446-0.649,1.446-1.446V3.196
				c0-0.797-0.649-1.446-1.446-1.446H3.071z"/>
		</g>
	</g>
	<g>
		<path fill="#2CADE3" d="M14.625,7.75h-11c-0.276,0-0.5-0.224-0.5-0.5s0.224-0.5,0.5-0.5h11c0.276,0,0.5,0.224,0.5,0.5
			S14.901,7.75,14.625,7.75z"/>
	</g>
	<g>
		<path fill="#2CADE3" d="M14.625,11.75h-11c-0.276,0-0.5-0.224-0.5-0.5s0.224-0.5,0.5-0.5h11c0.276,0,0.5,0.224,0.5,0.5
			S14.901,11.75,14.625,11.75z"/>
	</g>
	<g>
		<path fill="#2CADE3" d="M14.625,15.75h-11c-0.276,0-0.5-0.224-0.5-0.5s0.224-0.5,0.5-0.5h11c0.276,0,0.5,0.224,0.5,0.5
			S14.901,15.75,14.625,15.75z"/>
	</g>
	<g>
		<path fill="#2CADE3" d="M9.625,19.75h-6c-0.276,0-0.5-0.224-0.5-0.5s0.224-0.5,0.5-0.5h6c0.276,0,0.5,0.224,0.5,0.5
			S9.901,19.75,9.625,19.75z"/>
	</g>
</g>
</svg>
