<?xml version="1.0" encoding="utf-8"?>
<!-- Generator: Adobe Illustrator 17.0.0, SVG Export Plug-In . SVG Version: 6.00 Build 0)  -->
<!DOCTYPE svg PUBLIC "-//W3C//DTD SVG 1.1//EN" "http://www.w3.org/Graphics/SVG/1.1/DTD/svg11.dtd">
<svg version="1.1" id="Layer_1" xmlns="http://www.w3.org/2000/svg" xmlns:xlink="http://www.w3.org/1999/xlink" x="0px" y="0px"
	 width="23px" height="23px" viewBox="0 0 23 23" enable-background="new 0 0 23 23" xml:space="preserve">
<path fill="#FFFFFF" d="M19.63,19.101c1.865-1.994,3.017-4.663,3.017-7.602c0-6.146-5-11.146-11.146-11.146S0.354,5.354,0.354,11.5
	c0,2.971,1.176,5.668,3.077,7.668c0.024,0.032,0.049,0.063,0.081,0.089c2.027,2.087,4.857,3.39,7.989,3.39
	c3.15,0,5.994-1.319,8.023-3.428C19.566,19.186,19.6,19.146,19.63,19.101z M11.5,1.353c5.595,0,10.146,4.552,10.146,10.146
	c0,2.43-0.86,4.662-2.29,6.411c-0.703-1.533-1.748-2.719-3.18-3.497c-0.5-0.23-1.896-1.075-2.401-2.128
	c1.301-0.825,2.182-2.316,2.182-4.034c0-0.017-0.005-0.033-0.005-0.05c0-0.004,0.001-0.008,0.001-0.012
	c-0.001-0.005-0.003-0.009-0.003-0.014c-0.039-2.565-2.017-4.641-4.45-4.641c-1.321,0-2.497,0.624-3.314,1.593
	c-0.062,0.047-0.108,0.11-0.142,0.183c-0.616,0.809-1,1.823-1,2.941c0,1.737,0.902,3.241,2.227,4.06
	c-0.516,1.041-1.897,1.876-2.42,2.118c-1.421,0.773-2.47,1.974-3.172,3.529c-1.452-1.756-2.326-4.006-2.326-6.457
	C1.354,5.905,5.905,1.353,11.5,1.353z M8.227,7.112c0.034,0.051,0.058,0.107,0.098,0.154c0.545,0.646,1.421,0.649,1.587,0.64
	c0.165-0.006,0.317-0.093,0.405-0.231c0.7-1.104,2.328-1.098,2.381-1.099c0.207-0.012,2.014-0.059,2.256,1.709
	c-0.018,2.033-1.559,3.682-3.454,3.682c-1.906,0-3.457-1.667-3.457-3.717C8.044,7.851,8.118,7.473,8.227,7.112z M11.501,4.533
	c1.024,0,1.935,0.49,2.568,1.253c-0.512-0.187-1.025-0.236-1.393-0.209c-0.068,0.001-1.972-0.017-3.028,1.314
	c-0.175-0.026-0.413-0.095-0.56-0.27C8.935,6.439,8.905,6.132,8.969,5.739C9.601,5.003,10.498,4.533,11.501,4.533z M11.501,12.967
	c0.48,0,0.933-0.102,1.367-0.251c0.113,0.235,0.252,0.456,0.41,0.663c-1.627,0.584-2.894,0.35-3.578,0.103
	c0.188-0.231,0.351-0.482,0.481-0.75C10.601,12.871,11.039,12.967,11.501,12.967z M4.418,18.752
	c0.604-1.549,1.571-2.718,2.882-3.431c0.014-0.007,0.835-0.392,1.638-1.07c0.436,0.204,1.265,0.506,2.386,0.506
	c0.778,0,1.696-0.157,2.705-0.586c0.826,0.723,1.699,1.135,1.701,1.135c1.326,0.722,2.29,1.877,2.896,3.408
	c-1.834,1.811-4.35,2.933-7.125,2.933C8.746,21.647,6.248,20.54,4.418,18.752z"/>
</svg>
