<?xml version="1.0" encoding="utf-8"?>
<!-- Generator: Adobe Illustrator 17.0.0, SVG Export Plug-In . SVG Version: 6.00 Build 0)  -->
<!DOCTYPE svg PUBLIC "-//W3C//DTD SVG 1.1//EN" "http://www.w3.org/Graphics/SVG/1.1/DTD/svg11.dtd">
<svg version="1.1" id="Layer_1" xmlns="http://www.w3.org/2000/svg" xmlns:xlink="http://www.w3.org/1999/xlink" x="0px" y="0px"
	 width="90px" height="85px" viewBox="0 0 90 85" enable-background="new 0 0 90 85" xml:space="preserve">
<g>
	<path fill="#FFFFFF" d="M26.533,14.291c-14.235,0-25.816,11.581-25.816,25.815s11.581,25.815,25.816,25.815
		s25.815-11.581,25.815-25.815S40.768,14.291,26.533,14.291z M26.533,16.605c12.959,0,23.502,10.543,23.502,23.502
		c0,5.672-2.02,10.882-5.379,14.947c-1.611-3.554-4.067-6.25-7.364-8.042c-1.19-0.549-4.561-2.58-5.714-5.116
		c3.046-1.858,5.106-5.334,5.106-9.316c0-5.928-4.553-10.75-10.15-10.75c-5.596,0-10.149,4.823-10.149,10.75
		c0,4.026,2.103,7.537,5.204,9.379c-1.18,2.505-4.508,4.511-5.741,5.082c-3.278,1.784-5.743,4.509-7.352,8.112
		c-3.409-4.08-5.465-9.327-5.465-15.046C3.031,27.148,13.574,16.605,26.533,16.605z M20.486,26.688
		c1.498-1.77,3.651-2.89,6.049-2.89c2.668,0,5.035,1.385,6.529,3.513c-1.362-0.647-2.813-0.817-3.808-0.748
		c-0.188-0.017-4.557-0.04-6.933,3.054c-0.441-0.055-1.103-0.218-1.507-0.697C20.416,28.445,20.314,27.687,20.486,26.688z
		 M18.876,29.522c0.122,0.237,0.263,0.462,0.435,0.667c1.209,1.435,3.162,1.434,3.505,1.422c0.337,0,0.65-0.172,0.831-0.457
		c1.675-2.639,5.539-2.624,5.653-2.625c0.197-0.014,4.827-0.229,5.413,4.116c-0.033,4.812-3.687,8.717-8.178,8.717
		c-4.511,0-8.181-3.939-8.181-8.782C18.354,31.503,18.544,30.476,18.876,29.522z M26.535,43.331c1.146,0,2.243-0.211,3.272-0.584
		c0.301,0.654,0.696,1.264,1.149,1.825c-4.117,1.562-7.301,0.826-8.888,0.21c0.516-0.606,0.966-1.274,1.303-1.994
		C24.368,43.136,25.43,43.331,26.535,43.331z M26.533,63.609c-6.457,0-12.313-2.618-16.565-6.847
		c1.416-3.599,3.697-6.292,6.762-7.962c0.034-0.016,1.973-0.93,3.838-2.526c0.959,0.463,2.897,1.204,5.55,1.204
		c1.811,0,3.949-0.355,6.311-1.378c1.916,1.698,3.978,2.671,3.98,2.67c3.091,1.682,5.362,4.344,6.782,7.897
		C38.933,60.951,33.038,63.609,26.533,63.609z"/>
	<path fill="#FFFFFF" d="M76.615,63.472c-3.64-2.047-4.716-5.35-5.756-8.544c-1.129-3.466-2.296-7.049-7.038-7.049
		c-0.819,0-1.704,0.107-2.704,0.326c-7.193,1.578-6.667,5.965-6.157,10.209c0.403,3.358,0.819,6.83-1.842,10.177l-2.025,2.547
		l10.57-2.318c0.272,0.801,0.787,1.488,1.51,1.951c0.611,0.391,1.305,0.593,2.014,0.593c0.27,0,0.541-0.029,0.81-0.088
		c0.979-0.214,1.814-0.797,2.354-1.641c0.462-0.723,0.642-1.562,0.555-2.403l10.357-2.271L76.615,63.472z M66.402,68.387
		c-0.207,0.323-0.526,0.546-0.901,0.628c-0.375,0.081-0.758,0.013-1.081-0.193c-0.199-0.127-0.343-0.307-0.456-0.507l2.641-0.579
		C66.584,67.965,66.529,68.189,66.402,68.387z M56.443,67.596c1.549-3.333,1.148-6.669,0.814-9.458
		c-0.507-4.221-0.786-6.546,4.356-7.673c0.824-0.181,1.567-0.272,2.208-0.272c2.932,0,3.639,1.77,4.838,5.452
		c0.864,2.651,1.898,5.828,4.606,8.262L56.443,67.596z"/>
	<path fill="#FFFFFF" d="M65.328,30.807c0.811-0.302,1.226-1.204,0.924-2.016c-0.302-0.811-1.206-1.225-2.017-0.924L63.5,28.141
		c-0.811,0.302-1.225,1.205-0.924,2.017c0.302,0.811,1.205,1.224,2.016,0.922L65.328,30.807z"/>
	<path fill="#FFFFFF" d="M70.796,28.774c0.811-0.302,1.226-1.204,0.924-2.016c-0.302-0.811-1.206-1.225-2.017-0.924l-0.736,0.274
		c-0.811,0.302-1.225,1.205-0.924,2.017c0.302,0.811,1.205,1.224,2.016,0.922L70.796,28.774z"/>
	<path fill="#FFFFFF" d="M65.899,32.342l-0.736,0.274c-0.811,0.302-1.225,1.205-0.924,2.017c0.302,0.811,1.205,1.224,2.016,0.922
		l0.736-0.274c0.811-0.302,1.226-1.204,0.924-2.016C67.614,32.454,66.711,32.04,65.899,32.342z"/>
	<path fill="#FFFFFF" d="M71.367,30.309l-0.736,0.274c-0.811,0.302-1.225,1.205-0.924,2.017c0.302,0.811,1.205,1.224,2.016,0.922
		l0.736-0.274c0.811-0.302,1.226-1.204,0.924-2.016C73.082,30.421,72.178,30.007,71.367,30.309z"/>
	<path fill="#FFFFFF" d="M76.156,26.781c0.811-0.302,1.226-1.204,0.924-2.016c-0.302-0.811-1.206-1.225-2.017-0.923l-0.736,0.274
		c-0.811,0.302-1.225,1.205-0.924,2.017c0.302,0.811,1.205,1.224,2.016,0.922L76.156,26.781z"/>
	<path fill="#FFFFFF" d="M81.553,24.774c0.811-0.302,1.226-1.204,0.924-2.016s-1.206-1.225-2.017-0.923l-0.736,0.274
		c-0.811,0.302-1.225,1.205-0.924,2.017c0.302,0.811,1.205,1.224,2.016,0.922L81.553,24.774z"/>
	<path fill="#FFFFFF" d="M76.727,28.316l-0.736,0.274c-0.811,0.302-1.225,1.205-0.924,2.017c0.302,0.811,1.205,1.224,2.016,0.922
		l0.736-0.274c0.811-0.302,1.226-1.204,0.924-2.016C78.442,28.428,77.538,28.014,76.727,28.316z"/>
	<path fill="#FFFFFF" d="M82.124,26.309l-0.736,0.273c-0.811,0.302-1.225,1.205-0.924,2.017c0.302,0.811,1.205,1.224,2.016,0.922
		l0.736-0.274c0.811-0.302,1.226-1.204,0.924-2.016C83.839,26.421,82.935,26.008,82.124,26.309z"/>
	<path fill="#FFFFFF" d="M89.067,28.873l-4.869-13.096c-0.494-1.33-1.779-2.223-3.197-2.223c-0.406,0-0.806,0.072-1.189,0.215
		l-1.983,0.737c-0.406-0.647-1.222-0.943-1.965-0.667c-0.743,0.276-1.168,1.035-1.054,1.789l-3.799,1.412
		c-0.406-0.646-1.222-0.943-1.965-0.667c-0.743,0.276-1.168,1.035-1.054,1.789l-3.8,1.413c-0.406-0.646-1.222-0.943-1.965-0.667
		c-0.743,0.276-1.168,1.035-1.054,1.789l-2.541,0.945c-0.854,0.317-1.533,0.949-1.913,1.777c-0.379,0.829-0.413,1.755-0.095,2.609
		l4.869,13.096c0.494,1.33,1.779,2.223,3.197,2.223c0.406,0,0.806-0.072,1.189-0.215l21.179-7.875
		c0.854-0.317,1.533-0.949,1.913-1.777C89.35,30.654,89.384,29.727,89.067,28.873z M86.868,30.519
		c-0.122,0.267-0.341,0.47-0.616,0.572l-21.179,7.875c-0.561,0.208-1.207-0.096-1.412-0.646l-4.869-13.096
		c-0.102-0.275-0.091-0.573,0.031-0.839s0.341-0.47,0.616-0.572l2.534-0.942c0.396,0.678,1.231,0.997,1.991,0.714
		c0.761-0.283,1.183-1.069,1.04-1.841l3.788-1.408c0.396,0.678,1.231,0.997,1.991,0.714c0.761-0.283,1.183-1.069,1.04-1.841
		l3.787-1.408c0.396,0.678,1.231,0.997,1.991,0.714c0.761-0.283,1.183-1.069,1.04-1.841l1.977-0.735
		c0.124-0.046,0.252-0.069,0.382-0.069c0.457,0,0.87,0.288,1.029,0.716l4.869,13.096C87.001,29.955,86.99,30.253,86.868,30.519z"/>
</g>
</svg>
