<?xml version="1.0" encoding="utf-8"?>
<!-- Generator: Adobe Illustrator 17.0.0, SVG Export Plug-In . SVG Version: 6.00 Build 0)  -->
<!DOCTYPE svg PUBLIC "-//W3C//DTD SVG 1.1//EN" "http://www.w3.org/Graphics/SVG/1.1/DTD/svg11.dtd">
<svg version="1.1" id="Layer_1" xmlns="http://www.w3.org/2000/svg" xmlns:xlink="http://www.w3.org/1999/xlink" x="0px" y="0px"
	 width="120px" height="85px" viewBox="0 0 120 85" enable-background="new 0 0 120 85" xml:space="preserve">
<g>
	<path fill="#FFFFFF" d="M73.543,40.044c0.668,0,1.348-0.102,2.015-0.313l0,0c1.527-0.485,2.747-1.48,3.554-2.726
		c0.728,0.271,1.502,0.431,2.302,0.431c0.659,0,1.331-0.1,1.99-0.309c2.834-0.901,4.647-3.516,4.645-6.344
		c0-0.669-0.102-1.349-0.313-2.016l0-0.001c-0.903-2.83-3.517-4.642-6.344-4.642c-0.667,0-1.347,0.101-2.012,0.313
		c-1.529,0.485-2.748,1.481-3.555,2.727c-0.727-0.27-1.5-0.43-2.299-0.43c-0.661,0-1.334,0.1-1.995,0.31
		c-2.833,0.9-4.644,3.515-4.643,6.339c0,0.668,0.102,1.348,0.313,2.014C68.103,38.231,70.717,40.045,73.543,40.044z M72.455,29.962
		l0.001,0c0.359-0.114,0.717-0.167,1.07-0.167c0.752,0,1.488,0.244,2.102,0.682c0.4,0.285,0.905,0.361,1.371,0.206
		c0.466-0.155,0.825-0.518,0.975-0.986c0.35-1.085,1.178-1.976,2.333-2.343c0.364-0.115,0.728-0.169,1.086-0.169
		c1.521,0,2.946,0.981,3.428,2.509c0.116,0.365,0.17,0.731,0.17,1.09c-0.001,1.524-0.979,2.945-2.51,3.427
		c-0.358,0.113-0.715,0.166-1.066,0.166c-0.752,0-1.489-0.244-2.104-0.683c-0.4-0.285-0.905-0.361-1.371-0.206
		c-0.466,0.155-0.825,0.518-0.975,0.986c-0.35,1.085-1.178,1.975-2.332,2.342c-0.365,0.116-0.73,0.17-1.089,0.17
		c-1.522-0.001-2.942-0.978-3.426-2.512l0,0c-0.116-0.365-0.17-0.729-0.17-1.088C69.949,31.863,70.926,30.443,72.455,29.962z"/>
	<polygon fill="#FFFFFF" points="71.531,27.045 71.531,27.045 71.532,27.045 	"/>
	<polygon fill="#FFFFFF" points="18.896,35.485 18.896,35.485 18.896,35.484 	"/>
	<polygon fill="#FFFFFF" points="67.201,35.399 67.201,35.399 67.201,35.398 	"/>
	<polygon fill="#FFFFFF" points="89.283,13.148 89.284,13.15 89.284,13.15 	"/>
	<path fill="#FFFFFF" d="M38.032,48.405l-0.904-2.859c-0.255-0.805-1.114-1.252-1.92-0.997l-4.253,1.345
		c-0.384,0.121-0.711,0.396-0.896,0.753c-0.186,0.357-0.222,0.782-0.101,1.167l0.905,2.86c0.122,0.384,0.396,0.711,0.754,0.896
		c0.357,0.186,0.782,0.222,1.167,0.101l4.253-1.346C37.84,50.07,38.286,49.21,38.032,48.405z"/>
	<path fill="#FFFFFF" d="M91.329,40.426c-0.256-0.805-1.115-1.251-1.921-0.995L34.365,56.9c-0.805,0.256-1.251,1.115-0.995,1.921
		l1.891,5.958c0.122,0.384,0.397,0.71,0.754,0.896c0.358,0.185,0.783,0.222,1.167,0.1l55.046-17.469
		c0.39-0.124,0.708-0.392,0.896-0.754c0.188-0.363,0.223-0.777,0.1-1.167L91.329,40.426z M37.713,62.395l-0.965-3.042L88.876,42.81
		l0.966,3.042L37.713,62.395z"/>
	<path fill="#FFFFFF" d="M101.026,50.148l-0.001-0.002L89.284,13.15c-0.5-1.574-1.952-2.581-3.52-2.579
		c-0.37,0-0.748,0.056-1.115,0.172l-0.002,0.001L21.298,30.846l-0.001,0c-1.57,0.502-2.576,1.95-2.575,3.519
		c0,0.372,0.057,0.75,0.174,1.119l11.738,36.998l0,0.001c0.503,1.574,1.954,2.578,3.523,2.576c0.371,0,0.748-0.056,1.116-0.172
		l0.002-0.001l63.347-20.101l0.001,0c1.572-0.502,2.578-1.952,2.576-3.521C101.199,50.893,101.142,50.516,101.026,50.148z
		 M97.696,51.869L34.349,71.97l0.002-0.001L34.157,72c-0.269-0.001-0.524-0.173-0.607-0.443l0,0.001L21.812,34.559l0-0.001
		l-0.03-0.193c0.001-0.266,0.172-0.521,0.443-0.604l-0.001,0L85.57,13.661l0.193-0.03c0.268,0.002,0.52,0.171,0.603,0.441
		l0.001,0.002l11.742,36.998l-0.001-0.002l0.03,0.194C98.137,51.531,97.967,51.785,97.696,51.869z"/>
	<path fill="#FFFFFF" d="M30.588,45.07l4.254-1.346c0.39-0.123,0.708-0.391,0.896-0.754s0.224-0.777,0.101-1.167l-0.906-2.859
		c-0.255-0.805-1.114-1.252-1.92-0.997l-4.253,1.346c-0.805,0.255-1.252,1.114-0.997,1.92l0.905,2.86
		c0.122,0.384,0.396,0.711,0.753,0.896C29.779,45.155,30.204,45.192,30.588,45.07z"/>
	<path fill="#FFFFFF" d="M36.488,41.573c0.122,0.384,0.396,0.711,0.754,0.896c0.358,0.186,0.783,0.222,1.167,0.101l4.253-1.346
		c0.805-0.255,1.252-1.114,0.997-1.92l-0.905-2.859c-0.121-0.384-0.396-0.711-0.753-0.896s-0.782-0.222-1.167-0.101l-4.253,1.346
		c-0.805,0.255-1.252,1.114-0.997,1.92L36.488,41.573z"/>
	<path fill="#FFFFFF" d="M43.023,42.052l-4.254,1.345c-0.806,0.255-1.252,1.114-0.997,1.92l0.903,2.859
		c0.121,0.384,0.396,0.711,0.753,0.896c0.357,0.186,0.782,0.223,1.167,0.101l4.255-1.345c0.39-0.123,0.708-0.391,0.896-0.753
		s0.224-0.777,0.101-1.167l-0.904-2.859C44.688,42.244,43.828,41.797,43.023,42.052z"/>
</g>
<g>
	<g>
		<g>
			<path fill="#FFFFFF" d="M4.19,46.712c-0.602,0-1.178-0.345-1.444-0.928c-0.363-0.797-0.012-1.738,0.785-2.102l7.254-3.309
				c0.798-0.362,1.738-0.011,2.102,0.785c0.363,0.797,0.012,1.738-0.785,2.102l-7.254,3.309C4.634,46.666,4.411,46.712,4.19,46.712z
				"/>
		</g>
	</g>
	<g>
		<g>
			<path fill="#FFFFFF" d="M13.07,31.53c-0.142,0-0.286-0.019-0.429-0.059l-9.922-2.782c-0.844-0.236-1.335-1.112-1.099-1.956
				c0.237-0.843,1.116-1.333,1.956-1.099l9.922,2.782c0.844,0.236,1.335,1.112,1.099,1.956C14.4,31.072,13.763,31.53,13.07,31.53z"
				/>
		</g>
	</g>
	<g>
		<g>
			<path fill="#FFFFFF" d="M18.107,21.407c-0.445,0-0.888-0.187-1.201-0.55l-5.742-6.652c-0.572-0.663-0.499-1.665,0.164-2.237
				c0.664-0.573,1.666-0.499,2.237,0.164l5.742,6.652c0.572,0.663,0.499,1.665-0.164,2.237
				C18.844,21.28,18.475,21.407,18.107,21.407z"/>
		</g>
	</g>
</g>
<g>
	<g>
		<g>
			<path fill="#FFFFFF" d="M108.812,45.063c-0.602,0-1.178-0.344-1.444-0.928c-0.363-0.797-0.012-1.738,0.785-2.102l7.253-3.309
				c0.798-0.361,1.738-0.012,2.102,0.785c0.363,0.797,0.012,1.738-0.785,2.102l-7.253,3.309
				C109.256,45.018,109.032,45.063,108.812,45.063z"/>
		</g>
	</g>
	<g>
		<g>
			<path fill="#FFFFFF" d="M117.108,59.719c-0.142,0-0.286-0.019-0.429-0.059l-9.922-2.782c-0.844-0.236-1.335-1.112-1.099-1.956
				c0.237-0.843,1.115-1.333,1.956-1.099l9.922,2.782c0.844,0.236,1.335,1.112,1.099,1.956
				C118.438,59.261,117.801,59.719,117.108,59.719z"/>
		</g>
	</g>
	<g>
		<g>
			<path fill="#FFFFFF" d="M107.89,73.712c-0.445,0-0.888-0.187-1.201-0.55l-5.743-6.652c-0.572-0.663-0.499-1.665,0.164-2.237
				c0.663-0.572,1.665-0.5,2.237,0.164l5.743,6.652c0.572,0.663,0.499,1.665-0.164,2.237
				C108.626,73.585,108.257,73.712,107.89,73.712z"/>
		</g>
	</g>
</g>
</svg>
