<?xml version="1.0" encoding="utf-8"?>
<!-- Generator: Adobe Illustrator 17.0.0, SVG Export Plug-In . SVG Version: 6.00 Build 0)  -->
<!DOCTYPE svg PUBLIC "-//W3C//DTD SVG 1.1//EN" "http://www.w3.org/Graphics/SVG/1.1/DTD/svg11.dtd">
<svg version="1.1" id="Layer_1" xmlns="http://www.w3.org/2000/svg" xmlns:xlink="http://www.w3.org/1999/xlink" x="0px" y="0px"
	 width="85px" height="85px" viewBox="0.02 0.02 85 85" enable-background="new 0.02 0.02 85 85" xml:space="preserve">
<g>
	<g>
		<g>
			<path fill="#FFFFFF" d="M17.831,68.998c-0.584,0-1.135-0.311-1.432-0.833c-0.351-0.617-0.269-1.389,0.205-1.917l0,0
				c0.356-0.398,8.635-9.828,2.267-17.132c-2.504-2.873-5.064-6.395-5.064-10.741c0-10.931,14.426-19.824,32.157-19.824
				s32.157,8.893,32.157,19.824S63.693,58.198,45.962,58.198c-3.928,0-7.745-0.423-11.366-1.258
				c-1.586,2.958-6.342,10.005-16.442,12.025C18.047,68.987,17.938,68.998,17.831,68.998z M45.962,21.849
				c-15.913,0-28.859,7.414-28.859,16.526c0,2.591,1.271,5.155,4.252,8.574c4.945,5.671,3.293,12.553,0.602,17.391
				c7.407-3.248,10.08-9.619,10.208-9.936c0.312-0.767,1.145-1.192,1.947-0.979c3.736,0.979,7.723,1.475,11.85,1.475
				c15.913,0,28.859-7.413,28.859-16.525S61.875,21.849,45.962,21.849z"/>
		</g>
		<g>
			<path fill="#FFFFFF" d="M34.109,43.434c-3.195,0-5.794-2.6-5.794-5.794s2.6-5.794,5.794-5.794s5.794,2.6,5.794,5.794
				S37.304,43.434,34.109,43.434z M34.109,35.143c-1.377,0-2.497,1.12-2.497,2.497s1.12,2.497,2.497,2.497s2.497-1.12,2.497-2.497
				S35.486,35.143,34.109,35.143z"/>
		</g>
		<g>
			<path fill="#FFFFFF" d="M46.323,43.434c-3.195,0-5.794-2.6-5.794-5.794s2.6-5.794,5.794-5.794s5.794,2.6,5.794,5.794
				S49.518,43.434,46.323,43.434z M46.323,35.143c-1.377,0-2.497,1.12-2.497,2.497s1.12,2.497,2.497,2.497s2.497-1.12,2.497-2.497
				S47.7,35.143,46.323,35.143z"/>
		</g>
		<g>
			<path fill="#FFFFFF" d="M58.537,43.434c-3.195,0-5.794-2.6-5.794-5.794s2.6-5.794,5.794-5.794s5.794,2.6,5.794,5.794
				S61.732,43.434,58.537,43.434z M58.537,35.143c-1.376,0-2.497,1.12-2.497,2.497s1.12,2.497,2.497,2.497s2.496-1.12,2.496-2.497
				S59.914,35.143,58.537,35.143z"/>
		</g>
	</g>
	<g>
		<path fill="#FFFFFF" d="M15.453,22.951c-0.239,0-0.481-0.052-0.711-0.162L7.267,19.21c-0.821-0.394-1.168-1.378-0.775-2.199
			c0.393-0.822,1.379-1.169,2.199-0.775l7.475,3.579c0.821,0.394,1.168,1.378,0.775,2.199
			C16.659,22.606,16.068,22.951,15.453,22.951z"/>
	</g>
	<g>
		<path fill="#FFFFFF" d="M26.007,16.332c-0.629,0-1.229-0.362-1.504-0.973l-4.396-9.767c-0.374-0.831-0.004-1.807,0.827-2.18
			c0.831-0.374,1.806-0.003,2.18,0.827l4.396,9.767c0.374,0.831,0.004,1.807-0.827,2.18C26.463,16.285,26.233,16.332,26.007,16.332z
			"/>
	</g>
	<g>
		<path fill="#FFFFFF" d="M37.44,13.599c-0.088,0-0.178-0.007-0.268-0.022c-0.899-0.147-1.508-0.995-1.361-1.893l1.476-9.014
			c0.147-0.898,0.999-1.508,1.893-1.361c0.899,0.147,1.508,0.995,1.361,1.893l-1.476,9.014
			C38.932,13.025,38.233,13.599,37.44,13.599z"/>
	</g>
	<g>
		<g>
			<path fill="#FFFFFF" d="M58.186,71.02c-0.829,0-1.5-0.671-1.5-1.5v-5c0-0.829,0.671-1.5,1.5-1.5s1.5,0.671,1.5,1.5v5
				C59.686,70.348,59.015,71.02,58.186,71.02z"/>
		</g>
		<g>
			<path fill="#FFFFFF" d="M58.186,84.02c-0.829,0-1.5-0.671-1.5-1.5v-5c0-0.829,0.671-1.5,1.5-1.5s1.5,0.671,1.5,1.5v5
				C59.686,83.348,59.015,84.02,58.186,84.02z"/>
		</g>
		<g>
			<path fill="#FFFFFF" d="M52.686,75.52h-5c-0.829,0-1.5-0.671-1.5-1.5s0.671-1.5,1.5-1.5h5c0.829,0,1.5,0.671,1.5,1.5
				S53.515,75.52,52.686,75.52z"/>
		</g>
		<g>
			<path fill="#FFFFFF" d="M66.686,75.52h-4c-0.829,0-1.5-0.671-1.5-1.5s0.671-1.5,1.5-1.5h4c0.829,0,1.5,0.671,1.5,1.5
				S67.515,75.52,66.686,75.52z"/>
		</g>
	</g>
</g>
</svg>
