<?xml version="1.0" encoding="utf-8"?>
<!-- Generator: Adobe Illustrator 17.0.0, SVG Export Plug-In . SVG Version: 6.00 Build 0)  -->
<!DOCTYPE svg PUBLIC "-//W3C//DTD SVG 1.1//EN" "http://www.w3.org/Graphics/SVG/1.1/DTD/svg11.dtd">
<svg version="1.1" id="Layer_1" xmlns="http://www.w3.org/2000/svg" xmlns:xlink="http://www.w3.org/1999/xlink" x="0px" y="0px"
	 width="25px" height="25px" viewBox="0 0 25 25" enable-background="new 0 0 25 25" xml:space="preserve">
<g>
	<path fill="#FFFFFF" d="M5.832,11.183H5.195c-0.703,0-1.273,0.57-1.273,1.273c0,0.703,0.571,1.272,1.273,1.272h0.637
		c0.703,0,1.273-0.569,1.273-1.272C7.105,11.754,6.535,11.183,5.832,11.183z"/>
	<path fill="#FFFFFF" d="M10.567,11.183H9.93c-0.703,0-1.273,0.57-1.273,1.273c0,0.703,0.571,1.272,1.273,1.272h0.637
		c0.703,0,1.273-0.569,1.273-1.272C11.84,11.754,11.269,11.183,10.567,11.183z"/>
	<path fill="#FFFFFF" d="M5.832,15.058H5.195c-0.703,0-1.273,0.57-1.273,1.273c0,0.703,0.571,1.272,1.273,1.272h0.637
		c0.703,0,1.273-0.569,1.273-1.272C7.105,15.628,6.535,15.058,5.832,15.058z"/>
	<path fill="#FFFFFF" d="M10.567,15.058H9.93c-0.703,0-1.273,0.57-1.273,1.273c0,0.703,0.571,1.272,1.273,1.272h0.637
		c0.703,0,1.273-0.569,1.273-1.272C11.84,15.628,11.269,15.058,10.567,15.058z"/>
	<path fill="#FFFFFF" d="M15.209,11.183h-0.637c-0.703,0-1.273,0.57-1.273,1.273c0,0.703,0.571,1.272,1.273,1.272h0.637
		c0.703,0,1.273-0.569,1.273-1.272C16.482,11.754,15.911,11.183,15.209,11.183z"/>
	<path fill="#FFFFFF" d="M19.882,11.183h-0.637c-0.703,0-1.273,0.57-1.273,1.273c0,0.703,0.571,1.272,1.273,1.272h0.637
		c0.703,0,1.273-0.569,1.273-1.272C21.155,11.754,20.585,11.183,19.882,11.183z"/>
	<path fill="#FFFFFF" d="M15.209,15.058h-0.637c-0.703,0-1.273,0.57-1.273,1.273c0,0.703,0.571,1.272,1.273,1.272h0.637
		c0.703,0,1.273-0.569,1.273-1.272C16.482,15.628,15.911,15.058,15.209,15.058z"/>
	<path fill="#FFFFFF" d="M19.882,15.058h-0.637c-0.703,0-1.273,0.57-1.273,1.273c0,0.703,0.571,1.272,1.273,1.272h0.637
		c0.703,0,1.273-0.569,1.273-1.272C21.155,15.628,20.585,15.058,19.882,15.058z"/>
	<path fill="#FFFFFF" d="M21.67,5.22h-1.689V5.136c0-0.737-0.597-1.336-1.335-1.336c-0.737,0-1.336,0.599-1.336,1.336V5.22h-3.233
		V5.136c0-0.737-0.597-1.336-1.335-1.336c-0.737,0-1.336,0.599-1.336,1.336V5.22H8.172V5.136c0-0.737-0.597-1.336-1.335-1.336
		C6.1,3.8,5.501,4.399,5.501,5.136V5.22H3.33C2.045,5.22,1,6.265,1,7.55v11.34c0,1.285,1.045,2.33,2.33,2.33h18.34
		c1.285,0,2.33-1.045,2.33-2.33V7.55C24,6.265,22.955,5.22,21.67,5.22z M23,18.89c0,0.733-0.597,1.33-1.33,1.33H3.33
		C2.597,20.22,2,19.623,2,18.89V7.55c0-0.733,0.597-1.33,1.33-1.33h2.171v0.292c0,0.737,0.599,1.336,1.336,1.336
		c0.737,0,1.335-0.599,1.335-1.336V6.22h3.234v0.292c0,0.737,0.599,1.336,1.336,1.336c0.737,0,1.335-0.599,1.335-1.336V6.22h3.233
		v0.292c0,0.737,0.599,1.336,1.336,1.336c0.737,0,1.335-0.599,1.335-1.336V6.22h1.689c0.733,0,1.33,0.597,1.33,1.33V18.89z"/>
</g>
</svg>
