<?xml version="1.0" encoding="utf-8"?>
<!-- Generator: Adobe Illustrator 17.0.0, SVG Export Plug-In . SVG Version: 6.00 Build 0)  -->
<!DOCTYPE svg PUBLIC "-//W3C//DTD SVG 1.1//EN" "http://www.w3.org/Graphics/SVG/1.1/DTD/svg11.dtd">
<svg version="1.1" id="Layer_1" xmlns="http://www.w3.org/2000/svg" xmlns:xlink="http://www.w3.org/1999/xlink" x="0px" y="0px"
	 width="25px" height="18px" viewBox="0 0 25 18" enable-background="new 0 0 25 18" xml:space="preserve">
<g>
	<g>
		<polygon fill="#2CADE3" points="10.22,13.397 10.22,4.963 14.84,9.18 		"/>
	</g>
	<g>
		<g>
			<path fill="#2CADE3" d="M21.67,17H3.33C2.045,17,1,15.955,1,14.67V3.33C1,2.045,2.045,1,3.33,1h18.34C22.955,1,24,2.045,24,3.33
				v11.34C24,15.955,22.955,17,21.67,17z M3.33,2C2.597,2,2,2.597,2,3.33v11.34C2,15.403,2.597,16,3.33,16h18.34
				c0.733,0,1.33-0.597,1.33-1.33V3.33C23,2.597,22.403,2,21.67,2H3.33z"/>
		</g>
	</g>
</g>
</svg>
