<?xml version="1.0" encoding="utf-8"?>
<!-- Generator: Adobe Illustrator 17.0.0, SVG Export Plug-In . SVG Version: 6.00 Build 0)  -->
<!DOCTYPE svg PUBLIC "-//W3C//DTD SVG 1.1//EN" "http://www.w3.org/Graphics/SVG/1.1/DTD/svg11.dtd">
<svg version="1.1" id="Layer_1" xmlns="http://www.w3.org/2000/svg" xmlns:xlink="http://www.w3.org/1999/xlink" x="0px" y="0px"
	 width="85px" height="85px" viewBox="0.02 0.02 85 85" enable-background="new 0.02 0.02 85 85" xml:space="preserve">
<g>
	<g>
		<path fill="#FFFFFF" d="M41.56,41.532c-9.02,0-16.358-7.773-16.358-17.327S32.54,6.878,41.56,6.878s16.358,7.773,16.358,17.327
			S50.58,41.532,41.56,41.532z M41.56,10.051c-7.271,0-13.186,6.35-13.186,14.154S34.29,38.359,41.56,38.359
			s13.185-6.349,13.185-14.154S48.831,10.051,41.56,10.051z"/>
	</g>
	<g>
		<path fill="#FFFFFF" d="M9.227,80.058c-0.093-0.943-2.085-23.191,15.107-32.546c0.031-0.017,0.062-0.032,0.093-0.046
			c2.082-0.961,8.317-4.735,9.612-9.307l3.053,0.865c-1.881,6.639-10.489,10.916-11.278,11.295
			c-15.289,8.354-13.451,29.219-13.431,29.429L9.227,80.058z"/>
	</g>
	<g>
		<path fill="#FFFFFF" d="M74.1,80.058l-3.157-0.311c0.021-0.21,1.858-21.075-13.431-29.429c-0.789-0.379-9.396-4.656-11.277-11.295
			l3.053-0.864c1.295,4.572,7.53,8.345,9.612,9.307c0.032,0.015,0.063,0.03,0.093,0.046C76.185,56.867,74.194,79.115,74.1,80.058z"
			/>
	</g>
	<g>
		<path fill="#FFFFFF" d="M40.889,48.216c-6.002,0-9.796-2.371-10.03-2.521l1.708-2.673c0.298,0.188,7.391,4.528,17.635-0.107
			l1.308,2.891C47.522,47.61,43.923,48.216,40.889,48.216z"/>
	</g>
	<g>
		
			<rect x="44.438" y="49.44" transform="matrix(-0.0251 -0.9997 0.9997 -0.0251 1.3766 103.2219)" fill="#FFFFFF" width="13.163" height="3"/>
	</g>
	<g>
		<path fill="#FFFFFF" d="M51.729,66.111c-2.978,0-5.4-2.423-5.4-5.4s2.423-5.4,5.4-5.4s5.4,2.423,5.4,5.4
			S54.706,66.111,51.729,66.111z M51.729,58.483c-1.229,0-2.228,0.999-2.228,2.228s0.999,2.228,2.228,2.228s2.228-0.999,2.228-2.228
			S52.957,58.483,51.729,58.483z"/>
	</g>
	<g>
		<path fill="#FFFFFF" d="M30.591,69.332c-0.171-0.235-4.171-5.808-3.298-11.027c0.308-1.837,1.16-3.398,2.539-4.656l-2.392-6.481
			l2.977-1.099l2.788,7.554c0.25,0.677,0.011,1.437-0.58,1.85c-1.25,0.874-1.971,1.972-2.203,3.357
			c-0.544,3.252,1.789,7.337,2.734,8.636L30.591,69.332z"/>
	</g>
	<g>
		<path fill="#FFFFFF" d="M38.292,64.73c-1.215-9.317-6.203-9.001-6.415-8.979l-0.347-3.153c0.082-0.013,8.27-0.824,9.907,11.722
			L38.292,64.73z"/>
	</g>
	<g>
		<path fill="#FFFFFF" d="M32.864,72.71c-1.843,0-3.342-1.5-3.342-3.342s1.5-3.342,3.342-3.342s3.342,1.499,3.342,3.342
			S34.706,72.71,32.864,72.71z M32.864,69.199c-0.094,0-0.169,0.076-0.169,0.169c0,0.188,0.339,0.188,0.339,0
			C33.033,69.275,32.957,69.199,32.864,69.199z"/>
	</g>
	<g>
		<path fill="#FFFFFF" d="M40.128,69.804c-1.843,0-3.342-1.5-3.342-3.342s1.499-3.342,3.342-3.342s3.342,1.5,3.342,3.342
			S41.971,69.804,40.128,69.804z M40.128,66.293c-0.093,0-0.169,0.076-0.169,0.169c0,0.188,0.339,0.188,0.338,0
			C40.298,66.368,40.222,66.293,40.128,66.293z"/>
	</g>
	<g>
		<path fill="#FFFFFF" d="M54.758,24.402c-0.895-7.152-8.42-6.745-8.736-6.726c-0.043,0.002-0.086,0.004-0.13,0.003
			c-0.08-0.015-6.291-0.021-8.986,4.228c-0.291,0.458-0.796,0.736-1.339,0.736c-0.557,0.023-3.7,0.019-5.649-2.293
			c-1.359-1.612-1.748-3.856-1.156-6.671l3.104,0.653c-0.381,1.81-0.22,3.146,0.477,3.973c0.651,0.771,1.718,1.041,2.429,1.13
			c3.66-4.764,10.245-4.915,11.094-4.915c0.003,0,0.006,0,0.01,0c3.761,0,11.027,1.469,12.03,9.495L54.758,24.402z"/>
	</g>
</g>
<g>
	<g>
		<path fill="#FFFFFF" d="M12.186,22.02c-0.829,0-1.5-0.671-1.5-1.5v-5c0-0.829,0.671-1.5,1.5-1.5s1.5,0.671,1.5,1.5v5
			C13.686,21.348,13.015,22.02,12.186,22.02z"/>
	</g>
	<g>
		<path fill="#FFFFFF" d="M12.186,36.02c-0.829,0-1.5-0.671-1.5-1.5v-5c0-0.829,0.671-1.5,1.5-1.5s1.5,0.671,1.5,1.5v5
			C13.686,35.348,13.015,36.02,12.186,36.02z"/>
	</g>
	<g>
		<path fill="#FFFFFF" d="M7.686,26.52h-5c-0.829,0-1.5-0.671-1.5-1.5s0.671-1.5,1.5-1.5h5c0.829,0,1.5,0.671,1.5,1.5
			S8.515,26.52,7.686,26.52z"/>
	</g>
	<g>
		<path fill="#FFFFFF" d="M21.686,26.52h-5c-0.829,0-1.5-0.671-1.5-1.5s0.671-1.5,1.5-1.5h5c0.829,0,1.5,0.671,1.5,1.5
			S22.515,26.52,21.686,26.52z"/>
	</g>
</g>
<g>
	<g>
		<path fill="#FFFFFF" d="M73.186,37.02c-0.829,0-1.5-0.671-1.5-1.5v-5c0-0.829,0.671-1.5,1.5-1.5s1.5,0.671,1.5,1.5v5
			C74.686,36.348,74.015,37.02,73.186,37.02z"/>
	</g>
	<g>
		<path fill="#FFFFFF" d="M73.186,51.02c-0.829,0-1.5-0.671-1.5-1.5v-5c0-0.829,0.671-1.5,1.5-1.5s1.5,0.671,1.5,1.5v5
			C74.686,50.348,74.015,51.02,73.186,51.02z"/>
	</g>
	<g>
		<path fill="#FFFFFF" d="M68.686,41.52h-5c-0.829,0-1.5-0.671-1.5-1.5s0.671-1.5,1.5-1.5h5c0.829,0,1.5,0.671,1.5,1.5
			S69.515,41.52,68.686,41.52z"/>
	</g>
	<g>
		<path fill="#FFFFFF" d="M82.686,41.52h-5c-0.829,0-1.5-0.671-1.5-1.5s0.671-1.5,1.5-1.5h5c0.829,0,1.5,0.671,1.5,1.5
			S83.515,41.52,82.686,41.52z"/>
	</g>
</g>
</svg>
