<?xml version="1.0" encoding="utf-8"?>
<!-- Generator: Adobe Illustrator 17.0.0, SVG Export Plug-In . SVG Version: 6.00 Build 0)  -->
<!DOCTYPE svg PUBLIC "-//W3C//DTD SVG 1.1//EN" "http://www.w3.org/Graphics/SVG/1.1/DTD/svg11.dtd">
<svg version="1.1" id="Layer_1" xmlns="http://www.w3.org/2000/svg" xmlns:xlink="http://www.w3.org/1999/xlink" x="0px" y="0px"
	 width="21px" height="15px" viewBox="0 0 21 15" enable-background="new 0 0 21 15" xml:space="preserve">
<path fill="#676767" d="M20.464,7.462c-0.096-0.151-1.554-2.39-4.056-4.101l2.673-2.23c0.212-0.177,0.241-0.492,0.063-0.704
	c-0.176-0.212-0.491-0.241-0.704-0.063l-2.922,2.438c-1.416-0.806-3.102-1.393-5.018-1.393c-6.04,0-9.807,5.807-9.964,6.054
	L0.253,7.905L0.61,8.291c0.118,0.128,1.83,1.95,4.224,3.424l-2.861,2.387c-0.212,0.177-0.241,0.492-0.063,0.704
	c0.099,0.119,0.241,0.18,0.384,0.18c0.113,0,0.226-0.038,0.32-0.116l3.146-2.625c1.451,0.77,3.083,1.347,4.74,1.347
	c4.936,0,9.69-5.084,9.89-5.301l0.356-0.386L20.464,7.462z M1.996,7.755C2.961,6.463,6.105,2.772,10.5,2.772
	c1.437,0,2.739,0.401,3.878,0.98l-1.555,1.297c-0.607-0.575-1.422-0.934-2.324-0.934c-1.869,0-3.384,1.515-3.384,3.385
	c0,0.683,0.206,1.317,0.554,1.849L5.943,10.79C4.138,9.745,2.664,8.406,1.996,7.755z M12.09,7.5c0,0.878-0.711,1.59-1.59,1.59
	c-0.266,0-0.514-0.072-0.734-0.188l2.245-1.873C12.058,7.179,12.09,7.335,12.09,7.5z M8.91,7.5c0-0.878,0.712-1.59,1.59-1.59
	c0.348,0,0.667,0.115,0.928,0.304L9.069,8.181C8.97,7.974,8.91,7.745,8.91,7.5z M10.5,12.228c-1.221,0-2.454-0.386-3.599-0.936
	l1.443-1.204c0.587,0.49,1.332,0.796,2.156,0.796c1.869,0,3.385-1.515,3.385-3.385c0-0.606-0.172-1.166-0.451-1.658l1.87-1.56
	c1.841,1.175,3.138,2.726,3.699,3.474C17.82,8.911,14.108,12.228,10.5,12.228z"/>
</svg>
