<?xml version="1.0" encoding="utf-8"?>
<!-- Generator: Adobe Illustrator 17.0.0, SVG Export Plug-In . SVG Version: 6.00 Build 0)  -->
<!DOCTYPE svg PUBLIC "-//W3C//DTD SVG 1.1//EN" "http://www.w3.org/Graphics/SVG/1.1/DTD/svg11.dtd">
<svg version="1.1" id="Layer_1" xmlns="http://www.w3.org/2000/svg" xmlns:xlink="http://www.w3.org/1999/xlink" x="0px" y="0px"
	 width="21px" height="13px" viewBox="0 0 21 13" enable-background="new 0 0 21 13" xml:space="preserve">
<g>
	<g>
		<path fill="#676767" d="M10.5,12.592c-4.936,0-9.69-5.084-9.89-5.301L0.253,6.905l0.282-0.443C0.693,6.215,4.46,0.408,10.5,0.408
			s9.807,5.807,9.964,6.054l0.282,0.443L20.39,7.291C20.19,7.507,15.436,12.592,10.5,12.592z M1.996,6.755
			c1.184,1.154,4.903,4.473,8.504,4.473c3.608,0,7.32-3.317,8.503-4.472c-0.968-1.292-4.121-4.984-8.503-4.984
			C6.105,1.772,2.961,5.463,1.996,6.755z"/>
	</g>
	<path fill="#676767" d="M10.5,3.115c-1.869,0-3.384,1.515-3.384,3.385c0,1.869,1.515,3.385,3.384,3.385
		c1.869,0,3.385-1.515,3.385-3.385C13.885,4.631,12.369,3.115,10.5,3.115z M10.5,8.09c-0.878,0-1.59-0.712-1.59-1.59
		c0-0.878,0.712-1.59,1.59-1.59c0.879,0,1.59,0.712,1.59,1.59C12.09,7.378,11.379,8.09,10.5,8.09z"/>
</g>
</svg>
