<svg id="a6f90088-8af2-478e-a644-7b67949c8d83" data-name="Layer 1" xmlns="http://www.w3.org/2000/svg" viewBox="0 0 70.66596 70.66595"><rect x="1.00003" y="1.00002" width="68.66595" height="68.66595" rx="14.74612" style="fill:#4092c2"/><path d="M54.91983,70.666H15.74613A15.764,15.764,0,0,1,0,54.91986V15.74615A15.764,15.764,0,0,1,15.74613,0h39.1737a15.764,15.764,0,0,1,15.7461,15.74615V54.91986A15.764,15.764,0,0,1,54.91983,70.666ZM15.74613,2A13.76172,13.76172,0,0,0,2,15.74615V54.91986A13.76171,13.76171,0,0,0,15.74613,68.666h39.1737a13.76171,13.76171,0,0,0,13.7461-13.74609V15.74615A13.76172,13.76172,0,0,0,54.91983,2Z" style="fill:#fff"/><path d="M48.13187,48.24628v5.71679H24.11234V48.24628h9.07275V22.968H24.74173V17.25214h15.314V48.24628Z" style="fill:#fff"/></svg>