<svg id="afaf6b99-05aa-41ba-a901-e744fb078717" data-name="Layer 1" xmlns="http://www.w3.org/2000/svg" viewBox="0 0 70.66596 70.66595"><rect x="1" y="1.00001" width="68.66595" height="68.66595" rx="14.74612" style="fill:#4092c2"/><path d="M54.91983,70.666H15.74613A15.764,15.764,0,0,1,0,54.91989V15.74619A15.764,15.764,0,0,1,15.74613,0h39.1737a15.764,15.764,0,0,1,15.7461,15.74622v39.1737A15.764,15.764,0,0,1,54.91983,70.666ZM15.74613,2A13.76173,13.76173,0,0,0,2,15.74619v39.1737A13.76171,13.76171,0,0,0,15.74613,68.666h39.1737a13.76171,13.76171,0,0,0,13.7461-13.7461V15.74619A13.76173,13.76173,0,0,0,54.91983,2Z" style="fill:#fff"/><path d="M48.24222,48.19455V53.9631H21.1807V49.4006L35.76029,35.5549c3.5664-3.4082,4.1958-5.55859,4.1958-7.60449,0-3.35645-2.30762-5.29688-6.81787-5.29688a10.35978,10.35978,0,0,0-8.60108,3.82911l-4.77246-3.67188c2.832-3.82812,7.91944-6.083,13.9502-6.083,7.97168,0,13.11133,4.03809,13.11133,10.541,0,3.5664-.99659,6.81836-6.0835,11.59082l-9.80713,9.335Z" style="fill:#fff"/></svg>