<?xml version="1.0" encoding="utf-8"?>
<!-- Generator: Adobe Illustrator 17.0.0, SVG Export Plug-In . SVG Version: 6.00 Build 0)  -->
<!DOCTYPE svg PUBLIC "-//W3C//DTD SVG 1.1//EN" "http://www.w3.org/Graphics/SVG/1.1/DTD/svg11.dtd">
<svg version="1.1" id="Layer_1" xmlns="http://www.w3.org/2000/svg" xmlns:xlink="http://www.w3.org/1999/xlink" x="0px" y="0px"
	 width="19px" height="20px" viewBox="0 0 19 20" enable-background="new 0 0 19 20" xml:space="preserve">
<g>
	<g>
		<g>
			<path fill="#FFFFFF" d="M1.654,18.491c-1.952-1.837-0.926-4.903-0.281-5.992c0.126-0.243,0.595-0.761,1.397-1.522l9.313-8.92
				c0.047-0.051,1.326-1.313,2.952-1.314c0.777,0,1.497,0.29,2.137,0.858l0,0c0,0,1.33,1.06,1.41,2.491
				c0.043,0.702-0.147,1.356-0.734,1.925c-1.561,1.515-7.913,7.61-7.913,7.61c-0.623,0.566-1.395,0.849-2.269,0.848
				c-0.697,0-1.257-0.278-1.768-0.79c-1.421-1.417-0.632-3.08-0.018-3.759l7.887-7.551c0.065-0.057,0.586-0.511,1.38-0.511
				c0.26,0,0.479,0.006,0.732,0.101c-0.282-0.128-0.571-0.192-0.871-0.193c-1.181,0.001-2.167,0.975-2.205,1.018l-9.325,8.93
				c-1.021,0.975-1.192,1.254-1.2,1.266c-0.231,0.385-1.709,3.069,0.055,4.728c0.802,0.654,3.146,0.822,4.926-0.336l7.572-7.274
				l0.716,0.762l-7.725,7.399C6.236,19.621,2.665,19.554,1.654,18.491z M15.132,2.892c-0.396,0-0.649,0.224-0.659,0.232L6.62,10.646
				c-0.094,0.108-1.04,1.26,0.004,2.314c0.968,0.977,2.297,0.207,2.631-0.104l0.187-0.174l7.501-7.209
				c0.36-0.353,0.57-1.038,0.547-1.43c-0.027-0.441-0.13-0.74-0.39-1.056L16.446,3.64l-0.198-0.199
				C15.856,3.05,15.51,2.892,15.132,2.892L15.132,2.892z"/>
		</g>
	</g>
</g>
</svg>
