<svg id="bfa51431-427c-42a3-9ae1-5b0c638b6f84" data-name="Layer 1" xmlns="http://www.w3.org/2000/svg" viewBox="0 0 112.89076 112.89071"><rect x="0.98258" y="0.98249" width="110.92558" height="110.92558" rx="14.74612" style="fill:#fff"/><path d="M97.41871,112.89071H15.47206A15.48961,15.48961,0,0,1,.00007,97.4186V15.472A15.48961,15.48961,0,0,1,15.47206-.00016H97.41871a15.4896,15.4896,0,0,1,15.472,15.47211V97.4186A15.4896,15.4896,0,0,1,97.41871,112.89071ZM15.47206,1.965A13.52217,13.52217,0,0,0,1.96525,15.472V97.4186a13.52217,13.52217,0,0,0,13.50681,13.50692H97.41871a13.52217,13.52217,0,0,0,13.5068-13.50692V15.472A13.52217,13.52217,0,0,0,97.41871,1.965Z" style="fill:#4497c6"/><path d="M90.05747,43.79212l-.04248-.48486c-.5459-6.28369-1.68115-19.35889-23.438-22.82715-12.79883-2.0415-24.51806,1.00049-31.35107,8.13819-5.75684,6.0122-7.74951,14.41943-5.76856,24.2207-.07715,1.52539-1.936,3.9917-3.43017,5.9751-2.31153,3.06738-4.49512,5.96435-2.54785,8.10009a8.894,8.894,0,0,0,4.33007,2.48633c-.96826,2.43555-1.0083,4.19727-.11718,5.23926a3.48434,3.48434,0,0,0,1.46191.98926,3.74572,3.74572,0,0,0-.6416,1.96582c0,1.82471,2.32471,3.38525,4.36328,4.40234.02686,1.65528.37256,4.47071,2.21387,6.33692a6.40064,6.40064,0,0,0,5.3501,1.75,21.31929,21.31929,0,0,0,6.55371-1.40284l1.41845,5.896a1.60651,1.60651,0,1,0,3.124-.751l-1.95557-8.13183a1.629,1.629,0,0,0-1.39795-1.30664,1.4975,1.4975,0,0,0-1.50879.78027c-.28808.24756-1.78515,1.31836-6.50586,1.71436a3.30739,3.30739,0,0,1-2.78662-.80176c-1.29541-1.30664-1.35351-4.06836-1.272-4.93067A1.6034,1.6034,0,0,0,35.162,79.5221a13.0379,13.0379,0,0,1-3.375-2.05761,7.56409,7.56409,0,0,1,1.88233-1.90039,1.60743,1.60743,0,0,0-1.22412-2.88379,5.02119,5.02119,0,0,1-2.19532-.06494,11.65225,11.65225,0,0,1,1.32764-3.70655,1.59841,1.59841,0,0,0-.03467-1.55908,1.62021,1.62021,0,0,0-1.33789-.79639,7.079,7.079,0,0,1-4.25439-1.6914c.05127-.67432,1.91943-3.15332,2.64306-4.11377,2.00537-2.66162,4.07959-5.41406,4.07959-8.001a1.6435,1.6435,0,0,0-.03222-.32226c-1.81446-8.874-.11768-16.33789,4.90625-21.585,6.10547-6.377,16.76806-9.06348,28.52343-7.18653,19.27686,3.07276,20.19483,13.626,20.74366,19.93164l.04248.49268c1.292,14.43457-13.29834,31.19189-13.4458,31.35937a1.60261,1.60261,0,0,0-.39942,1.14405l.89649,17.70215a1.6197,1.6197,0,0,0,1.686,1.52294,1.6067,1.6067,0,0,0,1.523-1.686l-.86377-17.063a77.81,77.81,0,0,0,7.18506-10.28711C88.42954,58.214,90.65659,50.48255,90.05747,43.79212Z" style="fill:#4092c2"/><path d="M78.40024,35.006a5.81921,5.81921,0,0,0-11.26953-2.03808A5.81805,5.81805,0,0,0,55.86314,35.006c0,8.45752,10.67333,12.936,11.12792,13.12256l.13965.05762.14014-.05762C67.72544,47.942,78.40024,43.46351,78.40024,35.006Zm-11.26953,0Z" style="fill:#4092c2"/></svg>