<?xml version="1.0" encoding="utf-8"?>
<!-- Generator: Adobe Illustrator 17.0.0, SVG Export Plug-In . SVG Version: 6.00 Build 0)  -->
<!DOCTYPE svg PUBLIC "-//W3C//DTD SVG 1.1//EN" "http://www.w3.org/Graphics/SVG/1.1/DTD/svg11.dtd">
<svg version="1.1" id="Layer_1" xmlns="http://www.w3.org/2000/svg" xmlns:xlink="http://www.w3.org/1999/xlink" x="0px" y="0px"
	 width="16.5px" height="17.198px" viewBox="0 0 16.5 17.198" enable-background="new 0 0 16.5 17.198" xml:space="preserve">
<path fill-rule="evenodd" clip-rule="evenodd" fill="#FFFFFF" d="M2.207,15.783H14.58c0.496,0,0.898-0.402,0.898-0.898
	c0-0.496-0.402-0.898-0.898-0.898H2.207c-0.496,0-0.898,0.402-0.898,0.898C1.309,15.381,1.712,15.783,2.207,15.783L2.207,15.783z
	 M2.207,9.556H14.58c0.496,0,0.898-0.403,0.898-0.898c0-0.496-0.402-0.898-0.898-0.898H2.207c-0.496,0-0.898,0.402-0.898,0.898
	C1.309,9.153,1.712,9.556,2.207,9.556L2.207,9.556z M2.207,3.327H14.58c0.496,0,0.898-0.402,0.898-0.898
	c0-0.495-0.402-0.898-0.898-0.898H2.207c-0.496,0-0.898,0.403-0.898,0.898C1.309,2.925,1.712,3.327,2.207,3.327L2.207,3.327z"/>
</svg>
