<?xml version="1.0" encoding="utf-8"?>
<!-- Generator: Adobe Illustrator 17.0.0, SVG Export Plug-In . SVG Version: 6.00 Build 0)  -->
<!DOCTYPE svg PUBLIC "-//W3C//DTD SVG 1.1//EN" "http://www.w3.org/Graphics/SVG/1.1/DTD/svg11.dtd">
<svg version="1.1" id="Layer_1" xmlns="http://www.w3.org/2000/svg" xmlns:xlink="http://www.w3.org/1999/xlink" x="0px" y="0px"
	 width="95px" height="95px" viewBox="0 0 95 95" enable-background="new 0 0 95 95" xml:space="preserve">
<g>
	<circle fill="#FFFFFF" cx="47.408" cy="48" r="44.5"/>
	<g>
		<path fill="#F79452" d="M68.912,70.461c-1.067-1.142-2.002-2.335-2.875-3.548c-1.623,1.705-3.459,3.164-5.532,4.346
			c-3.937,2.245-8.259,3.365-12.964,3.365c-4.707,0-9.027-1.12-12.963-3.365c-3.936-2.243-7.061-5.427-9.373-9.553
			c-2.313-4.122-3.469-8.57-3.469-13.341c0-7.4,2.535-13.708,7.608-18.924c5.072-5.216,11.138-7.823,18.197-7.823
			c7.02,0,13.076,2.607,18.167,7.823c0.036,0.04,0.07,0.079,0.107,0.116c0.8-1.136,1.654-2.248,2.623-3.318
			c1.023-1.133,2.105-2.135,3.219-3.081c-6.49-6.538-14.502-9.849-24.086-9.849c-10.205,0-18.652,3.7-25.333,11.098
			c-6.077,6.714-9.114,14.637-9.114,23.777c0,9.217,3.209,17.274,9.631,24.169c6.418,6.892,14.691,10.338,24.816,10.338
			c9.733,0,17.742-3.242,24.061-9.662C70.693,72.234,69.777,71.392,68.912,70.461z"/>
		<path fill="#2CADE3" d="M59.814,52.757h-7.15v7.15c0,1.362-1.105,2.466-2.467,2.466h-4.578c-1.362,0-2.467-1.104-2.467-2.466
			v-7.15h-7.15c-1.362,0-2.467-1.105-2.467-2.467v-4.58c0-1.362,1.105-2.465,2.467-2.465h7.15v-7.15
			c0-1.363,1.105-2.467,2.467-2.467h4.578c1.362,0,2.467,1.104,2.467,2.467v7.15h7.15c0.139,0,0.272,0.019,0.405,0.041
			c0.516-3.423,1.569-6.669,3.076-9.652c-3.834-4.083-9.266-6.651-15.31-6.651c-11.607,0-21.017,9.412-21.017,21.019
			c0,11.608,9.41,21.017,21.017,21.017c6.045,0,11.476-2.567,15.31-6.651c-1.507-2.981-2.56-6.229-3.076-9.652
			C60.086,52.739,59.953,52.757,59.814,52.757z"/>
	</g>
</g>
</svg>
