<?xml version="1.0" encoding="utf-8"?>
<!-- Generator: Adobe Illustrator 17.0.0, SVG Export Plug-In . SVG Version: 6.00 Build 0)  -->
<!DOCTYPE svg PUBLIC "-//W3C//DTD SVG 1.1//EN" "http://www.w3.org/Graphics/SVG/1.1/DTD/svg11.dtd">
<svg version="1.1" id="Layer_1" xmlns="http://www.w3.org/2000/svg" xmlns:xlink="http://www.w3.org/1999/xlink" x="0px" y="0px"
	 width="46px" height="33px" viewBox="0 0 46 33" enable-background="new 0 0 46 33" xml:space="preserve">
<g>
	<path fill="#676767" d="M44.112,7.815l-7.672,5.113V7.214C36.44,5.442,34.998,4,33.226,4H5.654C3.882,4,2.44,5.442,2.44,7.214
		v18.572C2.44,27.558,3.882,29,5.654,29h27.572c1.772,0,3.214-1.442,3.214-3.214v-6.283l7.672,5.042V7.815z M34.44,25.786
		c0,0.669-0.544,1.214-1.214,1.214H5.654c-0.669,0-1.214-0.544-1.214-1.214V7.214C4.44,6.544,4.984,6,5.654,6h27.572
		c0.669,0,1.214,0.544,1.214,1.214V25.786z M42.112,20.838l-4.661-3.063l0.068-3.164l4.592-3.06V20.838z"/>
	<path fill="#676767" d="M28.026,9.197L16.083,21.139l-4.212-4.423c-0.38-0.4-1.014-0.415-1.414-0.035
		c-0.4,0.381-0.416,1.014-0.035,1.414l4.919,5.165c0.003,0.003,0.007,0.004,0.01,0.007c0.003,0.003,0.004,0.008,0.007,0.011
		c0.063,0.063,0.139,0.098,0.212,0.141c0.039,0.023,0.072,0.058,0.114,0.076c0.122,0.05,0.251,0.077,0.381,0.077
		c0.126,0,0.252-0.025,0.371-0.072c0.038-0.015,0.068-0.047,0.105-0.067c0.074-0.041,0.15-0.076,0.214-0.137
		c0.003-0.003,0.004-0.007,0.007-0.01c0.003-0.003,0.007-0.004,0.01-0.007L29.44,10.611c0.391-0.391,0.391-1.023,0-1.414
		S28.417,8.807,28.026,9.197z"/>
</g>
</svg>
