<?xml version="1.0" encoding="utf-8"?>
<!-- Generator: Adobe Illustrator 17.0.0, SVG Export Plug-In . SVG Version: 6.00 Build 0)  -->
<!DOCTYPE svg PUBLIC "-//W3C//DTD SVG 1.1//EN" "http://www.w3.org/Graphics/SVG/1.1/DTD/svg11.dtd">
<svg version="1.1" id="Layer_1" xmlns="http://www.w3.org/2000/svg" xmlns:xlink="http://www.w3.org/1999/xlink" x="0px" y="0px"
	 width="46px" height="33px" viewBox="0 0 46 33" enable-background="new 0 0 46 33" xml:space="preserve">
<g>
	<path fill="#676767" d="M44.112,7.815l-7.672,5.113V7.214C36.44,5.442,34.998,4,33.226,4H5.654C3.882,4,2.44,5.442,2.44,7.214
		v18.572C2.44,27.558,3.882,29,5.654,29h27.572c1.772,0,3.214-1.442,3.214-3.214v-6.283l7.672,5.042V7.815z M34.44,25.786
		c0,0.669-0.544,1.214-1.214,1.214H5.654c-0.669,0-1.214-0.544-1.214-1.214V7.214C4.44,6.544,4.984,6,5.654,6h27.572
		c0.669,0,1.214,0.544,1.214,1.214V25.786z M42.112,20.838l-4.661-3.063l0.068-3.164l4.592-3.06V20.838z"/>
</g>
<path fill="#676767" d="M21.204,16.44l5.626-5.626c0.391-0.391,0.391-1.023,0-1.414s-1.023-0.391-1.414,0l-5.626,5.626L14.164,9.4
	c-0.391-0.391-1.023-0.391-1.414,0s-0.391,1.023,0,1.414l5.626,5.626l-5.626,5.626c-0.391,0.391-0.391,1.023,0,1.414
	c0.195,0.195,0.451,0.293,0.707,0.293s0.512-0.098,0.707-0.293l5.626-5.626l5.626,5.626c0.195,0.195,0.451,0.293,0.707,0.293
	s0.512-0.098,0.707-0.293c0.391-0.391,0.391-1.023,0-1.414L21.204,16.44z"/>
</svg>
