<svg id="a5d0c00b-06e2-41fa-8ddd-d85c98b02afa" data-name="Layer 1" xmlns="http://www.w3.org/2000/svg" viewBox="0 0 112.89076 112.89071"><rect x="0.98742" y="0.98725" width="110.91603" height="110.92086" rx="14.74612" style="fill:#fff"/><path d="M97.34389,112.89071h-81.797A15.5269,15.5269,0,0,1,0,97.41926V15.47609A15.52689,15.52689,0,0,1,15.54687.00464h81.797a15.52689,15.52689,0,0,1,15.54687,15.47145V97.41926A15.5269,15.5269,0,0,1,97.34389,112.89071Zm-81.797-110.921A13.55472,13.55472,0,0,0,1.9747,15.47609V97.41926A13.55472,13.55472,0,0,0,15.54687,110.9256h81.797a13.55473,13.55473,0,0,0,13.57218-13.50634V15.47609A13.55473,13.55473,0,0,0,97.34389,1.96974Z" style="fill:#4497c6"/><path d="M82.85117,32.17547A37.20921,37.20921,0,0,0,56.66558,21.36776,36.84138,36.84138,0,0,0,30.61929,84.41292,36.06479,36.06479,0,0,0,56.66558,95.22063,36.93878,36.93878,0,0,0,82.85117,32.17547ZM80.69526,82.392a34.09645,34.09645,0,0,1-48.05432,0A34.29261,34.29261,0,0,1,22.73865,58.3613a33.92733,33.92733,0,1,1,67.85447,0A34.28523,34.28523,0,0,1,80.69526,82.392Z" style="fill:#4092c2"/><path d="M56.66546,95.58909a36.48428,36.48428,0,0,1-26.31127-10.919,37.00513,37.00513,0,0,1,.0053-52.75715,36.97125,36.97125,0,0,1,26.306-10.9136,37.645,37.645,0,0,1,26.4453,10.9136l.00289.00264A37.295,37.295,0,0,1,56.66546,95.58909Zm0-73.85284A36.76465,36.76465,0,0,0,20.04513,58.36144a35.84067,35.84067,0,0,0,10.83407,25.789A35.75247,35.75247,0,0,0,56.66546,94.85217,36.57068,36.57068,0,0,0,82.58985,32.43648,36.90657,36.90657,0,0,0,56.66546,21.73625Zm0,70.92846A34.18212,34.18212,0,0,1,22.36839,58.36132,34.1223,34.1223,0,0,1,32.37854,34.07067,34.5772,34.5772,0,0,1,56.66546,24.06381a34.16406,34.16406,0,0,1,34.2978,34.29751A34.62989,34.62989,0,0,1,80.96058,82.64886l-.00314.00335A34.13948,34.13948,0,0,1,56.66546,92.66471Zm0-67.864a33.83006,33.83006,0,0,0-23.76215,9.78976A33.39145,33.39145,0,0,0,23.1089,58.36132,33.44347,33.44347,0,0,0,56.66546,91.92779a33.40375,33.40375,0,0,0,23.76577-9.79408,33.89775,33.89775,0,0,0,9.79152-23.77239A33.42538,33.42538,0,0,0,56.66546,24.80073Z" style="fill:#4092c2"/><path d="M37.7374,48.46376a9.78224,9.78224,0,1,1-9.85142,9.71,9.74544,9.74544,0,0,1,9.85142-9.71Z" style="fill:#4092c2"/><path d="M37.73736,68.39624a10.15073,10.15073,0,1,1,0-20.301,10.15072,10.15072,0,0,1,0,20.301Zm0-19.56405a9.41386,9.41386,0,1,0,9.34,9.34154A9.42268,9.42268,0,0,0,37.73736,48.83219Z" style="fill:#4092c2"/><path d="M52.51,29.712a4.31456,4.31456,0,1,1-4.24256,4.24275A4.29811,4.29811,0,0,1,52.51,29.712Z" style="fill:#4092c2"/><path d="M52.51,38.70839a4.69,4.69,0,0,1-4.61276-4.75359A4.61717,4.61717,0,0,1,52.51,29.34358a4.68288,4.68288,0,1,1,0,9.36481Zm0-8.6279a3.94618,3.94618,0,0,0,0,7.891,3.946,3.946,0,1,0,0-7.891Z" style="fill:#4092c2"/><path d="M56.06893,69.53608a8.55071,8.55071,0,1,1-8.62125,8.61548,8.55248,8.55248,0,0,1,8.62125-8.61548Z" style="fill:#4092c2"/><path d="M56.06886,87.00533a8.91911,8.91911,0,1,1,8.85479-8.85375A8.93353,8.93353,0,0,1,56.06886,87.00533Zm0-17.10084a8.18225,8.18225,0,1,0,0,16.36392,8.18224,8.18224,0,0,0,0-16.36392Z" style="fill:#4092c2"/><path d="M60.17451,53.527a2.91633,2.91633,0,0,1,3.00755,2.87,3.03541,3.03541,0,0,1-3.00755,3.01254A2.92433,2.92433,0,0,1,57.29909,56.397a2.8044,2.8044,0,0,1,2.87542-2.87Z" style="fill:#4092c2"/><path d="M60.17445,59.77805a3.28,3.28,0,0,1-3.24552-3.381,3.17086,3.17086,0,0,1,3.24552-3.23851,3.27509,3.27509,0,0,1,3.37786,3.23851A3.42466,3.42466,0,0,1,60.17445,59.77805Zm0-5.88258a2.44846,2.44846,0,0,0-2.505,2.50159,2.54993,2.54993,0,0,0,2.505,2.64408,2.676,2.676,0,0,0,2.63735-2.64408A2.54482,2.54482,0,0,0,60.17445,53.89547Z" style="fill:#4092c2"/><path d="M70.98283,43.12794a2.05533,2.05533,0,1,1-1.918,2.04658,1.98523,1.98523,0,0,1,1.918-2.04658Z" style="fill:#4092c2"/><path d="M70.98273,47.59788a2.41919,2.41919,0,1,1,2.42088-2.42339A2.36131,2.36131,0,0,1,70.98273,47.59788Zm0-4.10147a1.68814,1.68814,0,0,0,0,3.36456,1.68228,1.68228,0,0,0,0-3.36456Z" style="fill:#4092c2"/><path d="M78.36906,54.07372a7.25028,7.25028,0,1,1-7.25,7.251,7.29853,7.29853,0,0,1,7.25-7.251Z" style="fill:#4092c2"/><path d="M78.369,68.94269a7.61873,7.61873,0,1,1,7.62446-7.618A7.6277,7.6277,0,0,1,78.369,68.94269Zm0-14.50054A6.88181,6.88181,0,1,0,85.253,61.32468,6.88888,6.88888,0,0,0,78.369,54.44215Z" style="fill:#4092c2"/><path d="M53.88131,43.67448a3.00767,3.00767,0,1,1-3.0117,3.00838,3.0355,3.0355,0,0,1,3.0117-3.00838Z" style="fill:#4092c2"/><path d="M53.88131,50.05822a3.37608,3.37608,0,1,1,3.37786-3.37536A3.42389,3.42389,0,0,1,53.88131,50.05822Zm0-6.01524a2.63917,2.63917,0,1,0,2.63735,2.63988A2.676,2.676,0,0,0,53.88131,44.043Z" style="fill:#4092c2"/></svg>