<?xml version="1.0" encoding="utf-8"?>
<!-- Generator: Adobe Illustrator 17.0.0, SVG Export Plug-In . SVG Version: 6.00 Build 0)  -->
<!DOCTYPE svg PUBLIC "-//W3C//DTD SVG 1.1//EN" "http://www.w3.org/Graphics/SVG/1.1/DTD/svg11.dtd">
<svg version="1.1" id="Layer_1" xmlns="http://www.w3.org/2000/svg" xmlns:xlink="http://www.w3.org/1999/xlink" x="0px" y="0px"
	 width="46px" height="33px" viewBox="0 0 46 33" enable-background="new 0 0 46 33" xml:space="preserve">
<g>
	<path fill="#EC2227" d="M44.967,14.555c-0.436-0.89-1.479-2.09-4.033-2.883C37.419,5.4,30.756,1.667,23.018,1.657
		c-0.002,0-0.003-0.001-0.005-0.001c-0.004,0-0.008,0-0.012,0c-0.005,0-0.01,0-0.015,0c-0.002,0-0.004,0.001-0.006,0.001
		C14.906,1.671,7.642,6.689,5.044,11.677c-2.522,0.776-3.574,1.984-4.012,2.878C0.536,15.57,0.535,16.7,1.032,17.913
		c0.153,0.375,0.519,0.621,0.925,0.621H14.48c0.316,0,0.614-0.15,0.803-0.404c0.099-0.133,0.957-1.343,0.601-2.793
		c-0.196-0.8-0.705-1.474-1.516-2.011c0.5-1.509,2.962-2.981,8.632-3.069c5.669,0.088,8.131,1.56,8.632,3.069
		c-0.811,0.537-1.32,1.21-1.516,2.011c-0.355,1.45,0.502,2.66,0.601,2.793c0.188,0.254,0.486,0.404,0.803,0.404h12.523
		c0.406,0,0.772-0.246,0.925-0.621C45.465,16.7,45.464,15.57,44.967,14.555z M43.304,16.534h-11.18
		c-0.076-0.21-0.129-0.475-0.063-0.73c0.1-0.391,0.473-0.745,1.109-1.053c0.337-0.164,0.554-0.502,0.563-0.877
		c0.001-0.049-0.001-0.099-0.008-0.147c-0.085-1.621-1.316-5.328-10.712-5.468c-0.002,0-0.003-0.001-0.005-0.001
		c-0.003,0-0.006,0-0.009,0c-0.003,0-0.006,0-0.009,0c-0.001,0-0.003,0.001-0.004,0.001c-9.365,0.14-10.619,3.823-10.712,5.467
		c-0.006,0.049-0.009,0.099-0.008,0.148c0.009,0.375,0.226,0.714,0.563,0.877c0.636,0.308,1.009,0.663,1.109,1.053
		c0.065,0.256,0.012,0.521-0.063,0.73H2.696c-0.073-0.408-0.028-0.771,0.133-1.1c0.226-0.462,0.927-1.326,3.079-1.926
		c0.495-0.138,0.705-0.418,0.791-0.669c2.189-4.528,8.848-9.178,16.303-9.183c7.103,0.005,13.193,3.45,16.316,9.226
		c0.095,0.239,0.308,0.496,0.774,0.626c2.152,0.6,2.853,1.464,3.079,1.926C43.332,15.763,43.376,16.126,43.304,16.534z"/>
	<path fill="#EC2227" d="M27.349,24.232c-0.462-0.305-1.081-0.178-1.386,0.282l-1.744,2.637v-9.617c0-0.552-0.448-1-1-1
		s-1,0.448-1,1v9.534l-1.818-2.578c-0.319-0.452-0.941-0.56-1.394-0.241c-0.452,0.318-0.56,0.942-0.241,1.394l3.722,5.278
		c0.188,0.266,0.493,0.424,0.817,0.424c0.005,0,0.01,0,0.015,0c0.331-0.005,0.637-0.173,0.819-0.448l3.492-5.278
		C27.936,25.157,27.809,24.537,27.349,24.232z"/>
</g>
</svg>
