<?xml version="1.0" encoding="utf-8"?>
<!-- Generator: Adobe Illustrator 17.0.0, SVG Export Plug-In . SVG Version: 6.00 Build 0)  -->
<!DOCTYPE svg PUBLIC "-//W3C//DTD SVG 1.1//EN" "http://www.w3.org/Graphics/SVG/1.1/DTD/svg11.dtd">
<svg version="1.1" id="Layer_1" xmlns="http://www.w3.org/2000/svg" xmlns:xlink="http://www.w3.org/1999/xlink" x="0px" y="0px"
	 width="30px" height="30px" viewBox="0 0 30 30" enable-background="new 0 0 30 30" xml:space="preserve">
<path fill="#2CADE3" d="M27.257,23.874c0.004-0.024,0.011-0.046,0.012-0.071c0.001-0.044-0.008-0.086-0.018-0.13
	c-0.004-0.018-0.001-0.037-0.008-0.055c-0.003-0.009-0.007-0.016-0.01-0.025c-0.002-0.004-0.003-0.009-0.005-0.013
	c-1.019-2.86-2.77-4.983-5.235-6.322c-0.032-0.015-3.034-1.454-3.897-3.565c2.032-1.186,3.412-3.478,3.412-6.107
	c0-3.842-2.947-6.967-6.57-6.967c-2.007,0-3.803,0.962-5.009,2.47C9.921,3.102,9.911,3.11,9.903,3.122
	C8.947,4.332,8.37,5.889,8.37,7.588c0,2.659,1.412,4.972,3.482,6.146C10.969,15.825,8,17.245,7.94,17.274
	c-2.465,1.341-4.229,3.499-5.242,6.411c-0.009,0.026-0.006,0.052-0.011,0.078c-0.007,0.036-0.016,0.071-0.015,0.108
	c0.001,0.023,0.008,0.043,0.011,0.066c0.007,0.045,0.015,0.088,0.034,0.13c0.006,0.013,0.015,0.023,0.022,0.035
	c0.021,0.038,0.039,0.077,0.07,0.11c3.201,3.333,7.508,5.168,12.128,5.168c4.656,0,8.987-1.86,12.195-5.239
	c0.023-0.024,0.034-0.055,0.051-0.082c0.014-0.022,0.031-0.042,0.042-0.066C27.243,23.954,27.25,23.915,27.257,23.874z
	 M18.925,20.866c0.581,0,1.054,0.473,1.054,1.054s-0.473,1.054-1.054,1.054c-0.581,0-1.053-0.473-1.053-1.054
	S18.344,20.866,18.925,20.866z M14.939,1.639c2.008,0,3.764,1.152,4.739,2.867c-0.999-0.64-2.176-0.807-2.942-0.756
	c-0.134-0.006-3.001-0.027-4.519,2.028c-0.309-0.028-0.842-0.133-1.168-0.52c-0.298-0.353-0.375-0.905-0.243-1.628
	C11.824,2.412,13.297,1.639,14.939,1.639z M9.388,7.588c0-0.864,0.177-1.683,0.487-2.425c0.092,0.277,0.213,0.536,0.396,0.753
	c0.757,0.897,1.988,0.901,2.226,0.89c0.167-0.006,0.324-0.094,0.414-0.236c1.151-1.814,3.783-1.801,3.849-1.801
	c0.138-0.008,3.331-0.161,3.729,2.854c-0.017,3.264-2.499,5.914-5.55,5.914C11.879,13.537,9.388,10.868,9.388,7.588z M14.939,14.555
	c0.785,0,1.535-0.154,2.233-0.423c0.224,0.526,0.549,1.008,0.921,1.444c-3.019,1.208-5.327,0.572-6.346,0.138
	c0.416-0.464,0.784-0.983,1.032-1.554C13.456,14.411,14.181,14.555,14.939,14.555z M3.776,23.724c0.942-2.513,2.5-4.384,4.621-5.54
	c0.015-0.007,0.603-0.285,1.356-0.783l0.615,1.666c-0.619,0.528-0.997,1.185-1.125,1.958c-0.287,1.736,0.806,3.487,1.1,3.92
	c-0.077,0.16-0.127,0.334-0.127,0.523c0,0.678,0.551,1.229,1.229,1.229c0.677,0,1.229-0.551,1.229-1.229
	c0-0.677-0.551-1.229-1.229-1.229c-0.108,0-0.205,0.035-0.304,0.062c-0.282-0.433-1.106-1.83-0.892-3.113
	c0.097-0.58,0.402-1.05,0.911-1.44c0.477,0.022,2.096,0.338,2.602,3.521c-0.334,0.22-0.569,0.58-0.569,1.009
	c0,0.678,0.551,1.229,1.229,1.229c0.678,0,1.229-0.551,1.229-1.229c0-0.555-0.377-1.007-0.884-1.159
	c-0.578-3.64-2.558-4.273-3.431-4.369l-0.727-1.97c0.121-0.096,0.242-0.197,0.362-0.302c0.588,0.295,1.89,0.822,3.69,0.822
	c1.12,0,2.439-0.224,3.889-0.816l-0.241,3.47c-0.841,0.264-1.456,1.042-1.456,1.968c0,1.143,0.929,2.072,2.072,2.072
	s2.072-0.93,2.072-2.072c0-1.009-0.726-1.85-1.682-2.033l0.243-2.946c1.036,0.787,1.975,1.227,1.979,1.228
	c2.132,1.159,3.683,3.01,4.627,5.491c-2.99,3.027-6.959,4.701-11.226,4.701C10.704,28.361,6.758,26.71,3.776,23.724z M11.445,25.257
	c0.116,0,0.21,0.094,0.21,0.21c0,0.233-0.42,0.232-0.42,0C11.235,25.352,11.329,25.257,11.445,25.257z M14.422,24.066
	c0.116,0,0.21,0.094,0.21,0.21c0,0.232-0.42,0.233-0.42,0C14.212,24.161,14.306,24.066,14.422,24.066z"/>
</svg>
