<?xml version="1.0" encoding="utf-8"?>
<!-- Generator: Adobe Illustrator 17.0.0, SVG Export Plug-In . SVG Version: 6.00 Build 0)  -->
<!DOCTYPE svg PUBLIC "-//W3C//DTD SVG 1.1//EN" "http://www.w3.org/Graphics/SVG/1.1/DTD/svg11.dtd">
<svg version="1.1" id="Layer_1" xmlns="http://www.w3.org/2000/svg" xmlns:xlink="http://www.w3.org/1999/xlink" x="0px" y="0px"
	 width="46px" height="46px" viewBox="0 0 46 46" enable-background="new 0 0 46 46" xml:space="preserve">
<path fill="#2CADE3" d="M23,0.682C10.694,0.682,0.682,10.694,0.682,23S10.694,45.318,23,45.318S45.318,35.306,45.318,23
	S35.306,0.682,23,0.682z M23,2.682c11.203,0,20.318,9.115,20.318,20.318c0,4.904-1.747,9.407-4.65,12.922
	c-1.393-3.073-3.516-5.403-6.366-6.952c-1.029-0.475-3.944-2.231-4.94-4.423c2.633-1.606,4.414-4.611,4.414-8.054
	c0-5.125-3.937-9.294-8.774-9.294s-8.774,4.169-8.774,9.294c0,3.48,1.818,6.516,4.499,8.108c-1.02,2.167-3.898,3.9-4.964,4.393
	c-2.832,1.542-4.963,3.897-6.354,7.01C4.461,32.478,2.682,27.945,2.682,23C2.682,11.797,11.797,2.682,23,2.682z M17.772,11.4
	c1.295-1.531,3.156-2.499,5.23-2.499c2.309,0,4.356,1.199,5.648,3.042c-1.179-0.561-2.437-0.71-3.295-0.652
	c-0.171-0.011-3.938-0.036-5.994,2.64c-0.382-0.047-0.954-0.188-1.303-0.603C17.711,12.918,17.623,12.263,17.772,11.4z
	 M16.385,13.837c0.106,0.208,0.221,0.41,0.372,0.589c1.046,1.24,2.735,1.239,3.059,1.229c0.28-0.011,0.54-0.158,0.689-0.395
	c1.448-2.282,4.789-2.268,4.887-2.27c0.174-0.01,4.174-0.196,4.679,3.558c-0.029,4.16-3.187,7.536-7.07,7.536
	c-3.9,0-7.072-3.406-7.072-7.592C15.929,15.557,16.095,14.665,16.385,13.837z M23.002,25.787c0.99,0,1.939-0.183,2.828-0.505
	c0.261,0.565,0.602,1.093,0.994,1.578c-3.559,1.351-6.311,0.715-7.683,0.182c0.446-0.524,0.835-1.102,1.127-1.724
	C21.129,25.619,22.046,25.787,23.002,25.787z M23,43.318c-5.582,0-10.644-2.265-14.32-5.921c1.225-3.111,3.196-5.438,5.845-6.882
	c0.029-0.013,1.706-0.803,3.319-2.183c0.829,0.4,2.505,1.041,4.798,1.041c1.565,0,3.414-0.307,5.456-1.192
	c1.657,1.468,3.439,2.309,3.441,2.309c2.672,1.453,4.635,3.755,5.863,6.825C33.719,41.019,28.624,43.318,23,43.318z"/>
<circle fill="#3DB54A" cx="40.656" cy="11.367" r="4.551"/>
</svg>
