<?xml version="1.0" encoding="utf-8"?>
<!-- Generator: Adobe Illustrator 17.0.0, SVG Export Plug-In . SVG Version: 6.00 Build 0)  -->
<!DOCTYPE svg PUBLIC "-//W3C//DTD SVG 1.1//EN" "http://www.w3.org/Graphics/SVG/1.1/DTD/svg11.dtd">
<svg version="1.1" id="Layer_1" xmlns="http://www.w3.org/2000/svg" xmlns:xlink="http://www.w3.org/1999/xlink" x="0px" y="0px"
	 width="25px" height="18px" viewBox="0 0 25 18" enable-background="new 0 0 25 18" xml:space="preserve">
<path fill="#2CADE3" d="M21.67,1H3.33C2.045,1,1,2.045,1,3.33v11.34c0,0.662,0.281,1.257,0.725,1.682
	c0.006,0.006,0.008,0.015,0.015,0.021c0.012,0.011,0.028,0.016,0.041,0.026C2.194,16.768,2.733,17,3.33,17h18.34
	c0.599,0,1.141-0.234,1.554-0.607c0.009-0.007,0.02-0.01,0.029-0.018c0.005-0.005,0.007-0.011,0.012-0.016
	C23.715,15.935,24,15.337,24,14.67V3.33C24,2.045,22.955,1,21.67,1z M16.407,8.061l6.521-5.086C22.961,3.091,23,3.204,23,3.33v11.34
	c0,0.195-0.047,0.378-0.123,0.545L16.407,8.061z M21.67,2c0.237,0,0.448,0.079,0.642,0.189l-9.815,7.655L2.572,2.267
	C2.79,2.111,3.042,2,3.33,2H21.67z M2.126,15.218C2.049,15.05,2,14.867,2,14.67V3.33c0-0.074,0.031-0.139,0.042-0.21l6.604,5.041
	L2.126,15.218z M3.33,16c-0.169,0-0.327-0.039-0.476-0.096l6.591-7.132l2.752,2.101c0.011,0.008,0.025,0.005,0.036,0.012
	c0.081,0.053,0.17,0.089,0.265,0.09c0.001,0,0.001,0.001,0.002,0.001c0,0,0,0,0,0s0,0,0,0c0.001,0,0.001-0.001,0.002-0.001
	c0.097-0.001,0.187-0.038,0.269-0.093c0.011-0.007,0.026-0.004,0.037-0.013l2.809-2.191l6.534,7.225
	C22.001,15.961,21.84,16,21.67,16H3.33z"/>
</svg>
