<?xml version="1.0" encoding="utf-8"?>
<!-- Generator: Adobe Illustrator 17.0.0, SVG Export Plug-In . SVG Version: 6.00 Build 0)  -->
<!DOCTYPE svg PUBLIC "-//W3C//DTD SVG 1.1//EN" "http://www.w3.org/Graphics/SVG/1.1/DTD/svg11.dtd">
<svg version="1.1" id="Layer_1" xmlns="http://www.w3.org/2000/svg" xmlns:xlink="http://www.w3.org/1999/xlink" x="0px" y="0px"
	 width="23px" height="23px" viewBox="0 0 23 23" enable-background="new 0 0 23 23" xml:space="preserve">
<g>
	<g>
		<g>
			<path fill="#00AFF0" d="M11.5,22.457c-6.042,0-10.957-4.915-10.957-10.957S5.458,0.543,11.5,0.543S22.457,5.459,22.457,11.5
				S17.542,22.457,11.5,22.457z M11.5,1.543c-5.49,0-9.957,4.467-9.957,9.957s4.466,9.957,9.957,9.957s9.957-4.466,9.957-9.957
				S16.99,1.543,11.5,1.543z"/>
		</g>
		<g>
			<path fill="#00AFF0" d="M11.378,12h-7.5c-0.276,0-0.5-0.224-0.5-0.5s0.224-0.5,0.5-0.5H11V7.027c0-0.276,0.224-0.5,0.5-0.5
				s0.5,0.224,0.5,0.5v4.5C12,11.803,11.655,12,11.378,12z"/>
		</g>
	</g>
</g>
</svg>
