<?xml version="1.0" encoding="utf-8"?>
<!-- Generator: Adobe Illustrator 17.0.0, SVG Export Plug-In . SVG Version: 6.00 Build 0)  -->
<!DOCTYPE svg PUBLIC "-//W3C//DTD SVG 1.1//EN" "http://www.w3.org/Graphics/SVG/1.1/DTD/svg11.dtd">
<svg version="1.1" id="Layer_1" xmlns="http://www.w3.org/2000/svg" xmlns:xlink="http://www.w3.org/1999/xlink" x="0px" y="0px"
	 width="85.039px" height="85.039px" viewBox="0 0 85.039 85.039" enable-background="new 0 0 85.039 85.039" xml:space="preserve">
<g>
	<path fill="#FFFFFF" d="M76.419,65.041c-0.042-0.829-0.423-8.164-1.005-10.345c-0.409-1.825-0.51-2.231-0.842-3.565l-0.177-0.711
		c-0.898-3.619-2.842-5.601-5.219-5.23c-1.083,0.167-1.904,0.66-2.493,1.341c-1.065-1.345-2.491-1.482-3.018-1.482
		c-0.355,0-0.635,0.048-0.802,0.086c-1.084,0.194-1.951,0.755-2.54,1.589c-0.826-0.833-1.771-1.067-2.569-1.067
		c-0.359,0-0.735,0.049-1.121,0.146c-0.85,0.214-1.498,0.603-1.987,1.092L53.1,41.432h9.68c3.093,0,5.609-2.739,5.609-6.105v-7.811
		c0-3.107-2.254-6.433-5.609-6.433H29.146c-3.382,0-5.739,3.39-5.739,6.433v7.811c0,3.366,2.574,6.105,5.739,6.105h13.69
		c0.569,3.713,1.191,7.302,1.235,7.561l0.673,3.623c-1.821-2.317-3.513-3.133-5.275-2.769c-0.046,0.01-0.092,0.021-0.136,0.035
		c-1.187,0.353-2.101,1.133-2.645,2.255c-1.576,3.256,0.52,8.715,0.748,9.287c0.469,1.267,4.657,12.48,7.258,15.88
		c2.764,3.613,9.393,6.417,9.673,6.535c0.092,0.038,0.187,0.069,0.284,0.09c0.056,0.013,1.409,0.311,3.49,0.311
		c3.505,0,8.747-0.814,13.813-4.69C77.174,75.557,76.45,65.423,76.419,65.041z M29.146,38.219c-1.511,0-2.526-1.495-2.526-2.892
		v-7.811c0-1.458,1.127-3.22,2.526-3.22H62.78c1.371,0,2.396,1.7,2.396,3.22v7.811c0,1.391-0.916,2.892-2.396,2.892H52.191
		l-0.394-1.392c-0.416-1.468-0.703-2.483-0.94-3.185c-0.007-0.095-0.023-0.191-0.047-0.287l-0.049,0.012
		c-0.002-0.006-0.005-0.012-0.007-0.018l0.051-0.013c-1.074-4.065-3.592-4.504-4.625-4.504c-0.484,0-0.833,0.09-0.869,0.105
		c-1.41,0.347-3.722,1.561-3.359,5.786c0.08,0.925,0.231,2.154,0.416,3.496H29.146z M69.891,76.852
		c-4.311,3.298-8.768,3.991-11.749,3.991c-1.337,0-2.286-0.145-2.617-0.204c-1.804-0.778-6.35-3.069-8.132-5.399
		c-1.939-2.536-5.545-11.684-6.786-15.035c-0.597-1.496-1.593-5.075-0.861-6.587c0.128-0.264,0.284-0.399,0.505-0.455
		c0.254,0,1.686,0.327,4.957,6.779c0.02,0.038,0.041,0.076,0.063,0.113c1.081,1.783,1.503,3.486,1.506,3.499
		c0.213,0.898,1.106,1.463,2.004,1.269c0.902-0.19,1.487-1.066,1.319-1.972l-2.683-14.46c-0.018-0.1-1.744-10.051-2.079-13.96
		c-0.168-1.961,0.453-2.114,0.843-2.202c0.505,0,1.019,0.756,1.34,1.974c0.007,0.026,0.014,0.051,0.022,0.076
		c0.211,0.73,4.24,14.976,6.364,22.493c0.239,0.847,1.087,1.368,1.951,1.207c0.865-0.164,1.461-0.962,1.374-1.838l-0.483-4.856
		c-0.005-0.046-0.012-0.092-0.019-0.137c-0.004-0.018-0.298-1.791,0.731-2.05c0.143-0.036,0.237-0.043,0.292-0.043
		c0.3,0,0.637,0.805,0.86,1.683l1.302,4.266c0.253,0.831,1.093,1.337,1.945,1.172c0.852-0.164,1.444-0.944,1.372-1.809
		c0,0-0.121-1.454-0.371-4.186c-0.043-0.475-0.07-1.593,0.617-1.705c0.033-0.006,0.053-0.007,0.068-0.007
		c0.038,0.001,0.036,0.01,0.117-0.024c0.374,0,0.594,0.561,0.713,1.032c0.213,0.845,1.272,4.252,1.392,4.638
		c0.255,0.821,1.081,1.32,1.93,1.166c0.846-0.156,1.442-0.919,1.388-1.777l-0.171-2.729c-0.003-0.04-0.006-0.079-0.012-0.119
		c-0.003-0.02-0.215-1.954,0.794-2.111c0.206,0.039,0.918,0.75,1.4,2.692l0.178,0.714c0.325,1.304,0.424,1.702,0.84,3.552
		c0.384,1.441,0.755,6.594,0.913,9.751C73.212,67.673,73.006,74.469,69.891,76.852z"/>
	<path fill="#FFFFFF" d="M44.291,19.477c0.887,0,1.606-0.719,1.606-1.606V2.876c0-0.887-0.719-1.606-1.606-1.606
		s-1.606,0.719-1.606,1.606V17.87C42.685,18.758,43.404,19.477,44.291,19.477z"/>
	<path fill="#FFFFFF" d="M52.418,19.19c0.487,0,0.97-0.208,1.306-0.611l6.795-8.154c0.6-0.721,0.503-1.792-0.218-2.393
		c-0.723-0.601-1.793-0.503-2.393,0.218l-6.795,8.154c-0.6,0.721-0.503,1.792,0.218,2.393C51.649,19.061,52.034,19.19,52.418,19.19z
		"/>
	<path fill="#FFFFFF" d="M33.391,18.51c0.334,0.445,0.844,0.68,1.36,0.68c0.355,0,0.713-0.111,1.018-0.34
		c0.75-0.563,0.903-1.628,0.34-2.378l-6.116-8.154c-0.563-0.751-1.628-0.902-2.378-0.34c-0.75,0.563-0.903,1.628-0.34,2.378
		L33.391,18.51z"/>
	<path fill="#FFFFFF" d="M19.658,51.606c-0.887,0-1.606,0.719-1.606,1.606v5.355c0,0.887,0.719,1.606,1.606,1.606
		c0.887,0,1.606-0.719,1.606-1.606v-5.355C21.265,52.325,20.546,51.606,19.658,51.606z"/>
	<path fill="#FFFFFF" d="M19.658,66.6c-0.887,0-1.606,0.719-1.606,1.606v5.355c0,0.887,0.719,1.606,1.606,1.606
		c0.887,0,1.606-0.719,1.606-1.606v-5.355C21.265,67.319,20.546,66.6,19.658,66.6z"/>
	<path fill="#FFFFFF" d="M14.839,61.781h-4.284c-0.887,0-1.606,0.719-1.606,1.606s0.719,1.606,1.606,1.606h4.284
		c0.887,0,1.606-0.719,1.606-1.606S15.726,61.781,14.839,61.781z"/>
	<path fill="#FFFFFF" d="M28.762,61.781h-5.355c-0.887,0-1.606,0.719-1.606,1.606s0.719,1.606,1.606,1.606h5.355
		c0.887,0,1.606-0.719,1.606-1.606S29.649,61.781,28.762,61.781z"/>
</g>
</svg>
