<svg id="baa6c204-36d8-470c-a6b9-ef2473976f8b" data-name="Layer 1" xmlns="http://www.w3.org/2000/svg" viewBox="0 0 112.89076 112.89071"><rect x="0.69337" y="0.69334" width="111.52357" height="111.52357" rx="14.74612" style="fill:#fff"/><path d="M102.28127,112.89071H10.629A10.62143,10.62143,0,0,1,.0196,102.28125V10.629A10.62143,10.62143,0,0,1,10.629.01955h91.65226A10.62149,10.62149,0,0,1,112.89076,10.629v91.65225A10.6215,10.6215,0,0,1,102.28127,112.89071ZM10.629,1.36711A9.27238,9.27238,0,0,0,1.36716,10.629v91.65225a9.27238,9.27238,0,0,0,9.26185,9.26189h91.65226a9.27239,9.27239,0,0,0,9.26193-9.26189V10.629a9.27239,9.27239,0,0,0-9.26193-9.26189Z" style="fill:#4497c6"/><path d="M33.25445,25.78012V87.1309a7.49417,7.49417,0,0,0,7.48571,7.48494h33.755A7.495,7.495,0,0,0,81.982,87.1309V25.78012a7.49519,7.49519,0,0,0-7.48685-7.4857h-33.755A7.49433,7.49433,0,0,0,33.25445,25.78012Zm7.48571-4.49782h33.755a4.50348,4.50348,0,0,1,4.49877,4.49782V87.1309a4.50262,4.50262,0,0,1-4.49877,4.4961h-33.755a4.501,4.501,0,0,1-4.49687-4.4961V25.78012A4.50185,4.50185,0,0,1,40.74016,21.2823Z" style="fill:#4092c2"/><path d="M45.72335,77.89018H69.51214a5.57509,5.57509,0,0,0,5.56929-5.56909V30.32485a5.57463,5.57463,0,0,0-5.56929-5.56928H45.72335a5.57586,5.57586,0,0,0-5.56928,5.56928V72.32109A5.57631,5.57631,0,0,0,45.72335,77.89018ZM42.54553,30.32485a3.18178,3.18178,0,0,1,3.17782-3.17878H69.51214a3.18215,3.18215,0,0,1,3.17956,3.17878V72.32109a3.1819,3.1819,0,0,1-3.17956,3.17763H45.72335a3.18153,3.18153,0,0,1-3.17782-3.17763Z" style="fill:#4092c2"/><path d="M57.61823,79.79473a5.10651,5.10651,0,1,0,5.10726,5.10651A5.11283,5.11283,0,0,0,57.61823,79.79473Zm0,8.42066a3.31377,3.31377,0,1,1,3.31319-3.31415A3.31714,3.31714,0,0,1,57.61823,88.21539Z" style="fill:#4092c2"/></svg>