<?xml version="1.0" encoding="utf-8"?>
<!-- Generator: Adobe Illustrator 17.0.0, SVG Export Plug-In . SVG Version: 6.00 Build 0)  -->
<!DOCTYPE svg PUBLIC "-//W3C//DTD SVG 1.1//EN" "http://www.w3.org/Graphics/SVG/1.1/DTD/svg11.dtd">
<svg version="1.1" id="Layer_1" xmlns="http://www.w3.org/2000/svg" xmlns:xlink="http://www.w3.org/1999/xlink" x="0px" y="0px"
	 width="35px" height="30px" viewBox="0 0 35 30" enable-background="new 0 0 35 30" xml:space="preserve">
<g>
	<path fill="#676767" d="M10.832,13.673h-0.637c-0.703,0-1.273,0.57-1.273,1.273c0,0.703,0.571,1.272,1.273,1.272h0.637
		c0.703,0,1.273-0.569,1.273-1.272C12.105,14.244,11.535,13.673,10.832,13.673z"/>
	<path fill="#676767" d="M15.567,13.673H14.93c-0.703,0-1.273,0.57-1.273,1.273c0,0.703,0.571,1.272,1.273,1.272h0.637
		c0.703,0,1.273-0.569,1.273-1.272C16.84,14.244,16.269,13.673,15.567,13.673z"/>
	<path fill="#676767" d="M10.832,17.548h-0.637c-0.703,0-1.273,0.57-1.273,1.273s0.571,1.272,1.273,1.272h0.637
		c0.703,0,1.273-0.569,1.273-1.272C12.105,18.118,11.535,17.548,10.832,17.548z"/>
	<path fill="#676767" d="M15.567,17.548H14.93c-0.703,0-1.273,0.57-1.273,1.273s0.571,1.272,1.273,1.272h0.637
		c0.703,0,1.273-0.569,1.273-1.272S16.269,17.548,15.567,17.548z"/>
	<path fill="#676767" d="M20.209,13.673h-0.637c-0.703,0-1.273,0.57-1.273,1.273c0,0.703,0.571,1.272,1.273,1.272h0.637
		c0.703,0,1.273-0.569,1.273-1.272C21.482,14.244,20.911,13.673,20.209,13.673z"/>
	<path fill="#676767" d="M24.882,13.673h-0.637c-0.703,0-1.273,0.57-1.273,1.273c0,0.703,0.571,1.272,1.273,1.272h0.637
		c0.703,0,1.273-0.569,1.273-1.272C26.155,14.244,25.585,13.673,24.882,13.673z"/>
	<path fill="#676767" d="M20.209,17.548h-0.637c-0.703,0-1.273,0.57-1.273,1.273s0.571,1.272,1.273,1.272h0.637
		c0.703,0,1.273-0.569,1.273-1.272S20.911,17.548,20.209,17.548z"/>
	<path fill="#676767" d="M24.882,17.548h-0.637c-0.703,0-1.273,0.57-1.273,1.273s0.571,1.272,1.273,1.272h0.637
		c0.703,0,1.273-0.569,1.273-1.272S25.585,17.548,24.882,17.548z"/>
	<path fill="#676767" d="M26.67,7.71h-1.689V7.626c0-0.737-0.597-1.336-1.335-1.336c-0.737,0-1.336,0.599-1.336,1.336V7.71h-3.233
		V7.626c0-0.737-0.597-1.336-1.335-1.336c-0.737,0-1.336,0.599-1.336,1.336V7.71h-3.234V7.626c0-0.737-0.597-1.336-1.335-1.336
		c-0.737,0-1.336,0.599-1.336,1.336V7.71H8.33C7.045,7.71,6,8.755,6,10.04v11.34c0,1.285,1.045,2.33,2.33,2.33h18.34
		c1.285,0,2.33-1.045,2.33-2.33V10.04C29,8.755,27.955,7.71,26.67,7.71z M28,21.38c0,0.733-0.597,1.33-1.33,1.33H8.33
		C7.597,22.71,7,22.113,7,21.38V10.04c0-0.733,0.597-1.33,1.33-1.33h2.171v0.292c0,0.737,0.599,1.336,1.336,1.336
		s1.335-0.599,1.335-1.336V8.71h3.234v0.292c0,0.737,0.599,1.336,1.336,1.336s1.335-0.599,1.335-1.336V8.71h3.233v0.292
		c0,0.737,0.599,1.336,1.336,1.336c0.737,0,1.335-0.599,1.335-1.336V8.71h1.689c0.733,0,1.33,0.597,1.33,1.33
		C28,10.04,28,21.38,28,21.38z"/>
</g>
</svg>
