<svg id="b42e1d37-1e5b-4a89-8755-9aeb01db8261" data-name="Layer 1" xmlns="http://www.w3.org/2000/svg" viewBox="0 0 112.89076 112.89071"><rect x="0.67398" y="0.6739" width="111.54288" height="111.54288" rx="14.74612" style="fill:#fff"/><path d="M102.27954,112.89071H10.61141A10.62337,10.62337,0,0,1,0,102.27937V10.61125A10.62332,10.62332,0,0,1,10.61141,0h91.66813a10.62328,10.62328,0,0,1,10.61125,10.61125v91.66812A10.62334,10.62334,0,0,1,102.27954,112.89071ZM10.61141,1.34779a9.274,9.274,0,0,0-9.26362,9.26346v91.66812a9.274,9.274,0,0,0,9.26362,9.26354h91.66813a9.274,9.274,0,0,0,9.26345-9.26354V10.61125a9.27395,9.27395,0,0,0-9.26345-9.26346Z" style="fill:#4497c6"/><path d="M50.26977,15.75475a7.26812,7.26812,0,0,0-8.77722,5.32379l-13.978,57.05239a7.25863,7.25863,0,0,0,5.32275,8.77742l29.78465,7.29687a7.3209,7.3209,0,0,0,1.73994.21186,7.26748,7.26748,0,0,0,7.03747-5.53564l13.977-57.0524a7.25861,7.25861,0,0,0-5.32276-8.77741ZM82.26788,31.068,68.2909,88.12143A4.0608,4.0608,0,0,1,63.383,91.0978L33.59916,83.79989A4.05745,4.05745,0,0,1,30.624,78.892L44.6,21.83937A4.06483,4.06483,0,0,1,49.5079,18.8632l29.78381,7.29791A4.05635,4.05635,0,0,1,82.26788,31.068Z" style="fill:#4092c2"/><path d="M53.444,34.24611a4.68995,4.68995,0,1,0-3.43854-5.67A4.69892,4.69892,0,0,0,53.444,34.24611Zm-.32-6.92235a2.74748,2.74748,0,0,1,1.43115-.40181,2.81067,2.81067,0,0,1,.66409.07978,2.76925,2.76925,0,1,1-2.09524.322Z" style="fill:#4092c2"/><path d="M56.33847,42.13826a4.68915,4.68915,0,1,0-5.671,3.43958,4.75331,4.75331,0,0,0,1.12441.13621,4.6957,4.6957,0,0,0,4.54662-3.57579ZM53.2199,43.39082a2.76994,2.76994,0,1,1,1.25338-1.70956A2.7529,2.7529,0,0,1,53.2199,43.39082Z" style="fill:#4092c2"/><path d="M50.03166,48.17659a4.68945,4.68945,0,1,0-2.23146,9.10957,4.7507,4.7507,0,0,0,1.12441.13621,4.6904,4.6904,0,0,0,1.10705-9.24578Zm.32,6.92255A2.76929,2.76929,0,1,1,48.91551,49.962a2.799,2.799,0,0,1,.65894.07978,2.7693,2.7693,0,0,1,.77717,5.05736Z" style="fill:#4092c2"/><path d="M47.25515,59.50749a4.69136,4.69136,0,1,0,2.89349,2.12439A4.69658,4.69658,0,0,0,47.25515,59.50749Zm-1.77508,7.24417a2.77088,2.77088,0,0,1-2.03075-3.3476,2.76913,2.76913,0,1,1,2.03075,3.3476Z" style="fill:#4092c2"/><path d="M44.31019,71.5275a4.68933,4.68933,0,0,0-2.23125,9.10937,4.69143,4.69143,0,0,0,5.67083-3.43854,4.68836,4.68836,0,0,0-3.43958-5.67083ZM42.536,78.77085a2.76876,2.76876,0,1,1,3.34883-2.03055A2.77155,2.77155,0,0,1,42.536,78.77085Z" style="fill:#4092c2"/><path d="M71.41548,28.993A4.68947,4.68947,0,0,0,69.183,38.10238a4.74676,4.74676,0,0,0,1.12441.13621A4.69032,4.69032,0,0,0,71.41548,28.993Zm.32,6.92235A2.77,2.77,0,1,1,72.988,34.2058,2.75086,2.75086,0,0,1,71.73545,35.91536Z" style="fill:#4092c2"/><path d="M68.639,40.32371a4.68933,4.68933,0,1,0,3.43854,5.671A4.69606,4.69606,0,0,0,68.639,40.32371Zm.31893,6.92235a2.76849,2.76849,0,1,1,1.25462-1.70853A2.74657,2.74657,0,0,1,68.9579,47.24606Z" style="fill:#4092c2"/><path d="M65.76987,52.032a4.68957,4.68957,0,1,0,3.43937,5.67082A4.69445,4.69445,0,0,0,65.76987,52.032ZM63.99562,59.2762a2.76926,2.76926,0,0,1,.66-5.459,2.73449,2.73449,0,0,1,.65811.08082,2.76866,2.76866,0,1,1-1.31808,5.37815Z" style="fill:#4092c2"/><path d="M62.99441,63.36376a4.68957,4.68957,0,1,0,3.43956,5.67A4.69573,4.69573,0,0,0,62.99441,63.36376Zm-1.77426,7.24437a2.76913,2.76913,0,1,1,3.34759-2.03075A2.77165,2.77165,0,0,1,61.22015,70.60813Z" style="fill:#4092c2"/><path d="M60.05047,75.38274a4.68922,4.68922,0,1,0,3.43854,5.671A4.66,4.66,0,0,0,60.05047,75.38274Zm.32,6.92235a2.76921,2.76921,0,1,1-1.44127-5.138,2.82349,2.82349,0,0,1,.66411.08082,2.76912,2.76912,0,0,1,.77716,5.05715Z" style="fill:#4092c2"/></svg>