<?xml version="1.0" encoding="utf-8"?>
<!-- Generator: Adobe Illustrator 17.0.0, SVG Export Plug-In . SVG Version: 6.00 Build 0)  -->
<!DOCTYPE svg PUBLIC "-//W3C//DTD SVG 1.1//EN" "http://www.w3.org/Graphics/SVG/1.1/DTD/svg11.dtd">
<svg version="1.1" id="Layer_1" xmlns="http://www.w3.org/2000/svg" xmlns:xlink="http://www.w3.org/1999/xlink" x="0px" y="0px"
	 width="35px" height="30px" viewBox="0 0 35 30" enable-background="new 0 0 35 30" xml:space="preserve">
<g>
	<g>
		<path fill="#676767" d="M17.708,25.222h-0.047c-4.42-0.015-8.701-2.125-8.881-2.215l-0.291-0.145l0.015-0.325
			c0.005-0.123,0.157-3.028,2-4.41c0.592-0.444,3.098-1.68,3.381-1.82l0.245-0.121l0.234,0.141c0.907,0.547,2.605,1.416,3.3,1.416
			c0.704,0,2.567-0.88,3.576-1.436l0.2-0.11l0.214,0.079c0.1,0.037,2.45,0.908,3.476,1.889c1.147,1.097,1.494,4.364,1.494,4.394
			C26.622,23.431,21.115,25.222,17.708,25.222z M9.535,22.257c1.048,0.474,4.602,1.954,8.131,1.966l0.043,0.5v-0.5
			c3.433,0,6.907-1.453,7.883-1.937c-0.113-0.806-0.511-2.782-1.154-3.397c-0.658-0.629-2.175-1.301-2.921-1.593
			c-0.7,0.373-2.811,1.449-3.853,1.449c-1.025,0-2.893-1.023-3.579-1.42c-1.083,0.537-2.617,1.33-2.981,1.603
			C9.957,19.788,9.624,21.531,9.535,22.257z"/>
	</g>
	<g>
		<path fill="#676767" d="M17.793,16.833c-0.747,0-1.791-0.476-2.66-1.213c-1.063-0.902-1.649-2.001-1.649-3.096
			c0-0.115-0.045-0.835-0.094-1.602c-0.252-0.552-0.793-2.068-0.036-3.629c0.775-1.599,2.322-2.516,4.244-2.516
			c0.927,0,1.859,0.224,2.626,0.63c1.34,0.71,2.773,2.184,1.99,5.174c-0.054,0.851-0.112,1.817-0.113,1.944
			c0,1.094-0.586,2.193-1.649,3.095C19.584,16.358,18.539,16.833,17.793,16.833z M17.598,5.777c-0.721,0-2.49,0.19-3.345,1.953
			c-0.482,0.996-0.276,2.123,0.079,2.846l0.05,0.188c0.054,0.835,0.102,1.644,0.102,1.761c0,0.796,0.46,1.625,1.296,2.333
			c0.756,0.641,1.584,0.976,2.013,0.976s1.257-0.335,2.013-0.976c0.835-0.708,1.296-1.537,1.296-2.333
			c0-0.115,0.059-1.12,0.116-2.048l0.029-0.148c0.503-1.919,0.015-3.239-1.491-4.037C19.132,5.959,18.365,5.777,17.598,5.777z"/>
	</g>
	<g>
		<path fill="#676767" d="M27.739,21.34c-0.419,0-0.518-0.304-0.756-1.039c-0.17-0.525-0.403-1.244-0.736-1.955
			c-0.165-0.352-1.344-1.259-2.341-1.897c-0.165-0.105-0.253-0.298-0.226-0.491c0.027-0.194,0.166-0.354,0.353-0.41
			c0.317-0.094,0.944-0.363,1.158-0.458c0.142-0.063,0.307-0.056,0.442,0.017c0.632,0.344,1.703,0.827,2.106,0.827
			c0.409,0,1.551-0.491,2.231-0.839c0.124-0.063,0.27-0.073,0.4-0.024c0.166,0.061,1.642,0.615,2.325,1.268
			c0.821,0.784,1.027,2.968,1.027,2.988c0,0.799-4.463,1.925-5.954,2.012C27.76,21.339,27.748,21.34,27.739,21.34z M25.254,16.151
			c0.731,0.518,1.651,1.243,1.897,1.771c0.359,0.768,0.614,1.552,0.782,2.071c0.04,0.123,0.074,0.232,0.104,0.322
			c1.891-0.183,3.91-0.961,4.645-1.282c-0.096-0.581-0.348-1.656-0.678-1.972c-0.392-0.375-1.288-0.778-1.78-0.976
			c-0.54,0.265-1.804,0.848-2.485,0.848c-0.675,0-1.842-0.562-2.366-0.833C25.337,16.116,25.298,16.134,25.254,16.151z"/>
	</g>
	<g>
		<path fill="#676767" d="M27.796,15.191c-0.534,0-1.241-0.319-1.846-0.832c-0.732-0.621-1.135-1.385-1.135-2.149
			c-0.001-0.081-0.028-0.523-0.059-1.001c-0.179-0.404-0.521-1.426-0.008-2.483c0.535-1.104,1.6-1.737,2.921-1.737
			c0.632,0,1.269,0.153,1.792,0.431c0.76,0.403,1.951,1.402,1.384,3.568c-0.029,0.513-0.066,1.132-0.068,1.226
			c0,0.762-0.403,1.525-1.136,2.146C29.038,14.872,28.33,15.191,27.796,15.191z M27.67,7.989c-0.542,0-1.526,0.153-2.021,1.174
			c-0.287,0.593-0.162,1.267,0.05,1.701l0.05,0.188c0.035,0.549,0.067,1.081,0.067,1.158c0,0.466,0.278,0.958,0.782,1.387
			c0.455,0.386,0.957,0.594,1.199,0.594s0.744-0.208,1.198-0.594c0.505-0.428,0.783-0.92,0.783-1.387
			c0-0.075,0.038-0.735,0.076-1.346l0.024-0.13c0.303-1.16,0.014-1.955-0.884-2.431C28.611,8.1,28.142,7.989,27.67,7.989z"/>
	</g>
	<g>
		<path fill="#676767" d="M7.262,21.84c0.005,0-0.019,0-0.029-0.001c-1.49-0.087-5.955-1.213-5.955-2.012
			c0-0.02,0.206-2.203,1.027-2.988c0.683-0.653,2.159-1.207,2.325-1.268c0.127-0.046,0.269-0.04,0.391,0.02
			c0.693,0.337,1.855,0.812,2.268,0.812c0.405,0,1.461-0.466,2.083-0.797c0.137-0.073,0.298-0.079,0.439-0.015
			c0.214,0.095,0.841,0.364,1.158,0.458c0.188,0.056,0.326,0.216,0.353,0.41c0.027,0.193-0.061,0.386-0.226,0.491
			c-0.998,0.639-2.177,1.545-2.342,1.897c-0.333,0.711-0.565,1.43-0.736,1.955C7.78,21.535,7.681,21.84,7.262,21.84z M2.32,19.534
			c0.736,0.321,2.753,1.099,4.643,1.281c0.03-0.09,0.064-0.199,0.104-0.323c0.168-0.519,0.422-1.303,0.781-2.07
			c0.247-0.528,1.167-1.253,1.898-1.771c-0.043-0.018-0.084-0.036-0.122-0.051c-0.516,0.261-1.665,0.802-2.336,0.802
			c-0.68,0-1.965-0.564-2.507-0.818c-0.492,0.196-1.394,0.603-1.785,0.978C2.668,17.875,2.418,18.936,2.32,19.534z"/>
	</g>
	<g>
		<path fill="#676767" d="M7.204,15.691c-0.534,0-1.241-0.319-1.846-0.832c-0.732-0.62-1.135-1.384-1.135-2.149
			C4.221,12.619,4.184,12,4.148,11.427c-0.561-2.105,0.63-3.104,1.39-3.507C6.062,7.642,6.699,7.489,7.33,7.489
			c1.321,0,2.386,0.633,2.921,1.737c0.513,1.057,0.171,2.079-0.008,2.483c-0.031,0.478-0.058,0.92-0.059,1.003
			c0,0.763-0.403,1.527-1.136,2.147C8.445,15.372,7.738,15.691,7.204,15.691z M7.331,8.489c-0.472,0-0.942,0.112-1.325,0.314
			c-0.898,0.477-1.187,1.272-0.884,2.432l0.024,0.13c0.038,0.61,0.077,1.271,0.077,1.346c0,0.467,0.278,0.959,0.782,1.387
			c0.455,0.386,0.957,0.594,1.199,0.594s0.744-0.208,1.198-0.594c0.505-0.428,0.783-0.92,0.783-1.387
			c0-0.077,0.032-0.609,0.067-1.158l0.05-0.188c0.212-0.434,0.337-1.108,0.05-1.701C8.857,8.642,7.873,8.489,7.331,8.489z"/>
	</g>
</g>
</svg>
