<?xml version="1.0" encoding="utf-8"?>
<!-- Generator: Adobe Illustrator 17.0.0, SVG Export Plug-In . SVG Version: 6.00 Build 0)  -->
<!DOCTYPE svg PUBLIC "-//W3C//DTD SVG 1.1//EN" "http://www.w3.org/Graphics/SVG/1.1/DTD/svg11.dtd">
<svg version="1.1" id="Layer_1" xmlns="http://www.w3.org/2000/svg" xmlns:xlink="http://www.w3.org/1999/xlink" x="0px" y="0px"
	 width="46px" height="46px" viewBox="0 0 46 46" enable-background="new 0 0 46 46" xml:space="preserve">
<path fill="#2CADE3" d="M23,0.682C10.694,0.682,0.682,10.694,0.682,23S10.694,45.318,23,45.318S45.318,35.306,45.318,23
	S35.306,0.682,23,0.682z M23,43.318c-5.582,0-10.644-2.265-14.32-5.921c1.225-3.111,3.196-5.438,5.845-6.882
	c0.017-0.008,0.603-0.287,1.403-0.788l0.636,1.723c-0.739,0.673-1.195,1.51-1.36,2.494c-0.342,2.041,0.706,4.177,1.333,5.235
	c-0.09,0.213-0.14,0.447-0.14,0.693c0,0.987,0.804,1.791,1.792,1.791s1.792-0.804,1.792-1.791s-0.804-1.791-1.792-1.791
	c-0.104,0-0.204,0.014-0.303,0.031c-0.513-0.906-1.239-2.493-1.003-3.89c0.112-0.662,0.446-1.196,0.991-1.637
	c0.633,0.054,2.496,0.536,3.139,4.301c-0.437,0.327-0.724,0.844-0.724,1.43c0,0.987,0.804,1.791,1.792,1.791
	s1.792-0.804,1.792-1.791c0-0.773-0.494-1.426-1.18-1.678c-0.775-4.594-3.273-5.545-4.511-5.72l-0.812-2.2
	c0.158-0.124,0.317-0.249,0.475-0.385c0.829,0.4,2.505,1.041,4.798,1.041c1.354,0,2.93-0.255,4.65-0.89v3.944
	c-1.269,0.307-2.217,1.445-2.217,2.806c0,1.596,1.299,2.894,2.895,2.894s2.895-1.298,2.895-2.894c0-1.117-0.643-2.077-1.572-2.559
	v-3.544c1.219,0.875,2.246,1.361,2.247,1.361c2.672,1.453,4.635,3.755,5.863,6.825C33.719,41.019,28.624,43.318,23,43.318z
	 M19.816,15.655c0.28-0.011,0.54-0.158,0.689-0.395c1.448-2.282,4.789-2.268,4.887-2.27c0.174-0.01,4.174-0.196,4.679,3.558
	c-0.029,4.16-3.187,7.536-7.07,7.536c-3.9,0-7.072-3.406-7.072-7.592c0-0.935,0.166-1.828,0.456-2.656
	c0.106,0.208,0.221,0.41,0.372,0.589C17.803,15.666,19.491,15.664,19.816,15.655z M17.772,11.4c1.295-1.531,3.156-2.499,5.23-2.499
	c2.309,0,4.356,1.199,5.648,3.042c-1.179-0.561-2.437-0.71-3.295-0.652c-0.171-0.011-3.938-0.036-5.994,2.64
	c-0.382-0.047-0.954-0.188-1.303-0.603C17.711,12.918,17.623,12.263,17.772,11.4z M29.161,35.233c0,0.658-0.535,1.193-1.192,1.193
	s-1.192-0.535-1.192-1.193s0.535-1.192,1.192-1.192S29.161,34.575,29.161,35.233z M20.267,25.319c0.862,0.3,1.779,0.469,2.735,0.469
	c0.99,0,1.939-0.183,2.828-0.505c0.261,0.565,0.602,1.093,0.994,1.578c-3.559,1.351-6.311,0.715-7.683,0.182
	C19.586,26.519,19.975,25.942,20.267,25.319z M38.668,35.922c-1.393-3.073-3.516-5.403-6.366-6.952
	c-1.029-0.475-3.944-2.231-4.94-4.423c2.633-1.606,4.414-4.611,4.414-8.054c0-5.125-3.937-9.294-8.774-9.294
	s-8.774,4.169-8.774,9.294c0,3.48,1.818,6.516,4.499,8.108c-1.02,2.167-3.898,3.9-4.964,4.393c-2.832,1.542-4.963,3.897-6.354,7.01
	C4.461,32.478,2.682,27.945,2.682,23C2.682,11.797,11.797,2.682,23,2.682c11.203,0,20.318,9.115,20.318,20.318
	C43.318,27.904,41.572,32.407,38.668,35.922z"/>
<circle fill="#EF4136" cx="40.656" cy="11.367" r="4.551"/>
</svg>
