<?xml version="1.0" encoding="utf-8"?>
<!-- Generator: Adobe Illustrator 17.0.0, SVG Export Plug-In . SVG Version: 6.00 Build 0)  -->
<!DOCTYPE svg PUBLIC "-//W3C//DTD SVG 1.1//EN" "http://www.w3.org/Graphics/SVG/1.1/DTD/svg11.dtd">
<svg version="1.1" id="Layer_1" xmlns="http://www.w3.org/2000/svg" xmlns:xlink="http://www.w3.org/1999/xlink" x="0px" y="0px"
	 width="23px" height="23px" viewBox="0 0 23 23" enable-background="new 0 0 23 23" xml:space="preserve">
<g>
	<path fill="#2CADE3" d="M11.5,0.353c-6.146,0-11.146,5-11.146,11.146c0,2.971,1.176,5.668,3.077,7.668
		c0.024,0.032,0.049,0.063,0.081,0.089c2.027,2.087,4.857,3.39,7.989,3.39c3.15,0,5.994-1.319,8.023-3.428
		c0.043-0.033,0.077-0.073,0.107-0.118c1.865-1.994,3.017-4.663,3.017-7.602C22.646,5.354,17.646,0.353,11.5,0.353z M11.5,21.647
		c-2.754,0-5.252-1.107-7.082-2.894c0.604-1.549,1.571-2.718,2.882-3.431c0.011-0.005,0.464-0.219,1.023-0.604l0.516,1.346
		c-0.365,0.333-0.59,0.748-0.672,1.235c-0.169,1.014,0.351,2.072,0.662,2.596c-0.045,0.106-0.07,0.222-0.07,0.344
		c0,0.49,0.399,0.889,0.889,0.889c0.49,0,0.889-0.399,0.889-0.889c0-0.49-0.399-0.889-0.889-0.889c-0.05,0-0.093,0.021-0.141,0.029
		C9.252,18.933,8.881,18.139,9,17.436c0.056-0.331,0.234-0.593,0.508-0.813c0.329,0.032,1.232,0.299,1.544,2.147
		c-0.214,0.162-0.362,0.408-0.362,0.696c0,0.49,0.399,0.889,0.889,0.889s0.889-0.399,0.889-0.889c0-0.382-0.246-0.702-0.585-0.827
		c-0.385-2.288-1.629-2.756-2.242-2.843l-0.572-1.491c0.459,0.2,1.225,0.452,2.254,0.452c0.771,0,1.679-0.156,2.677-0.576v2.415
		c-0.545,0.204-0.936,0.726-0.936,1.341c0,0.792,0.645,1.436,1.436,1.436s1.436-0.645,1.436-1.436c0-0.616-0.391-1.138-0.937-1.342
		v-1.704c0.42,0.267,0.728,0.414,0.729,0.413c1.326,0.722,2.29,1.877,2.896,3.408C16.791,20.525,14.275,21.647,11.5,21.647z
		 M9.912,7.906c0.165-0.006,0.317-0.093,0.405-0.231c0.7-1.104,2.328-1.098,2.381-1.099c0.207-0.012,2.014-0.059,2.256,1.709
		c-0.018,2.033-1.559,3.682-3.454,3.682c-1.906,0-3.457-1.667-3.457-3.717c0-0.399,0.074-0.777,0.183-1.138
		c0.034,0.051,0.058,0.107,0.098,0.154C8.87,7.913,9.746,7.916,9.912,7.906z M8.969,5.739c0.632-0.736,1.529-1.206,2.532-1.206
		c1.024,0,1.935,0.49,2.568,1.253c-0.512-0.187-1.025-0.236-1.393-0.209c-0.068,0.001-1.972-0.017-3.028,1.314
		c-0.175-0.026-0.413-0.095-0.56-0.27C8.935,6.439,8.905,6.132,8.969,5.739z M10.182,12.732c0.42,0.139,0.857,0.235,1.319,0.235
		c0.48,0,0.933-0.102,1.367-0.251c0.113,0.235,0.252,0.456,0.41,0.663c-1.627,0.584-2.894,0.35-3.578,0.103
		C9.888,13.251,10.051,12.999,10.182,12.732z M15.092,17.938c0,0.326-0.265,0.591-0.591,0.591s-0.591-0.265-0.591-0.591
		c0-0.327,0.265-0.592,0.591-0.592S15.092,17.611,15.092,17.938z M19.357,17.91c-0.703-1.533-1.748-2.719-3.18-3.497
		c-0.5-0.23-1.896-1.075-2.401-2.128c1.301-0.825,2.182-2.316,2.182-4.034c0-0.017-0.005-0.033-0.005-0.05
		c0-0.004,0.001-0.008,0.001-0.012c-0.001-0.005-0.003-0.009-0.003-0.014c-0.039-2.565-2.017-4.641-4.45-4.641
		c-1.321,0-2.497,0.624-3.314,1.593c-0.062,0.047-0.108,0.11-0.142,0.183c-0.616,0.809-1,1.823-1,2.941
		c0,1.737,0.902,3.241,2.227,4.06c-0.516,1.041-1.897,1.876-2.42,2.118c-1.421,0.773-2.47,1.974-3.172,3.529
		c-1.452-1.756-2.326-4.006-2.326-6.457c0-5.595,4.552-10.146,10.146-10.146S21.646,5.905,21.646,11.5
		C21.646,13.93,20.786,16.161,19.357,17.91z"/>
	<g>
		<g>
			<path fill="none" stroke="#2CADE3" stroke-width="0.8443" stroke-linejoin="round" stroke-miterlimit="10" d="M9.295,14.005"/>
		</g>
	</g>
</g>
</svg>
