<?xml version="1.0" encoding="utf-8"?>
<!-- Generator: Adobe Illustrator 17.0.0, SVG Export Plug-In . SVG Version: 6.00 Build 0)  -->
<!DOCTYPE svg PUBLIC "-//W3C//DTD SVG 1.1//EN" "http://www.w3.org/Graphics/SVG/1.1/DTD/svg11.dtd">
<svg version="1.1" id="Layer_1" xmlns="http://www.w3.org/2000/svg" xmlns:xlink="http://www.w3.org/1999/xlink" x="0px" y="0px"
	 width="35px" height="30px" viewBox="0 0 35 30" enable-background="new 0 0 35 30" xml:space="preserve">
<path fill="#676767" d="M20.321,21.402l8.432-1.849l-1.244-0.699c-3.407-1.916-4.44-5.086-5.351-7.883
	c-0.996-3.056-1.936-5.943-5.807-5.943c-0.684,0-1.459,0.094-2.304,0.279c-5.975,1.31-5.552,4.832-5.105,8.56
	c0.354,2.946,0.754,6.285-1.743,9.425l-0.952,1.198l8.525-1.87c0.007,0.036,0.008,0.073,0.016,0.109
	c0.292,1.331,1.476,2.242,2.787,2.242c0.202,0,0.406-0.021,0.611-0.066c1.536-0.337,2.511-1.861,2.175-3.398
	C20.352,21.469,20.331,21.438,20.321,21.402z M10.022,13.736C9.569,9.961,9.27,7.468,14.281,6.369
	c0.768-0.168,1.465-0.254,2.071-0.254c3.081,0,3.791,2.178,4.772,5.192c0.826,2.535,1.832,5.624,4.729,7.768L8.858,22.802
	C10.733,19.656,10.343,16.406,10.022,13.736z M17.952,23.842c-0.953,0.205-1.894-0.396-2.102-1.347
	c-0.008-0.036-0.002-0.074-0.008-0.11l3.416-0.749c0.01,0.036,0.031,0.067,0.039,0.104C19.506,22.69,18.902,23.633,17.952,23.842z"
	/>
</svg>
