<svg id="bde84671-3539-495e-aa64-def24c478f92" data-name="Layer 1" xmlns="http://www.w3.org/2000/svg" viewBox="0 0 948.46914 206.97825"><path d="M291.85228.30859v184.547H268.97017V163.96341c-10.69563,14.92321-27.60733,22.38446-47.008,22.38446-38.55,0-66.65573-27.10969-66.65573-67.40185s28.10569-67.15338,66.65573-67.15338c18.65383,0,35.07,6.9643,46.01269,21.14069V.30859ZM268.22335,118.946c0-28.105-19.15079-46.26117-44.27057-46.26117-25.36966,0-44.52045,18.15618-44.52045,46.26117s19.15079,46.50964,44.52045,46.50964C249.07256,165.45566,268.22335,147.051,268.22335,118.946Z" style="fill:#66af94"/><path d="M322.44552,118.946c0-39.29687,29.09958-67.15338,68.64632-67.15338,39.54534,0,68.39646,27.85651,68.39646,67.15338s-28.85112,67.40185-68.39646,67.40185C351.5451,186.34787,322.44552,158.24289,322.44552,118.946Zm112.91689,0c0-28.105-18.90231-46.26117-44.27057-46.26117-25.36966,0-44.52044,18.15618-44.52044,46.26117s19.15078,46.50964,44.52044,46.50964C416.4601,165.45566,435.36241,147.051,435.36241,118.946Z" style="fill:#66af94"/><path d="M477.89505,118.946c0-39.29687,29.09959-67.15338,69.64023-67.15338,23.62893,0,43.27667,9.69963,53.72242,28.105L583.10222,91.58716c-8.45656-12.93331-21.38986-18.90231-35.81542-18.90231-25.86661,0-45.26587,18.15618-45.26587,46.26117,0,28.60194,19.39926,46.50964,45.26587,46.50964,14.42556,0,27.35886-5.969,35.81542-18.9023l18.15548,11.441c-10.44575,18.40466-30.09349,28.35346-53.72242,28.35346C506.99464,186.34787,477.89505,158.24289,477.89505,118.946Z" style="fill:#66af94"/><path d="M705.471,177.14519c-7.21278,6.21818-18.15688,9.20268-28.85111,9.20268-26.612,0-41.78442-14.674-41.78442-41.28677V72.68485H612.45168V53.03642h22.38376V24.1853h23.87741V53.03642h37.80461V72.68485H658.71285V144.0665c0,14.17639,7.46125,22.13529,20.643,22.13529a30.07325,30.07325,0,0,0,18.65383-6.21748Z" style="fill:#66af94"/><path d="M713.679,118.946c0-39.29687,29.09959-67.15338,68.64633-67.15338,39.54534,0,68.39646,27.85651,68.39646,67.15338s-28.85112,67.40185-68.39646,67.40185C742.77863,186.34787,713.679,158.24289,713.679,118.946Zm112.9169,0c0-28.105-18.90231-46.26117-44.27057-46.26117-25.36966,0-44.52044,18.15618-44.52044,46.26117s19.15078,46.50964,44.52044,46.50964C807.69363,165.45566,826.59594,147.051,826.59594,118.946Z" style="fill:#66af94"/><path d="M948.46914,51.79264V74.92323a42.21171,42.21171,0,0,0-5.47206-.24848c-25.61813,0-41.53594,15.66863-41.53594,44.51974v65.66113h-23.876V53.03642h22.88071V75.1717C908.9224,59.75154,925.33855,51.79264,948.46914,51.79264Z" style="fill:#66af94"/><path d="M93.214,184.85578c-39.2747,0-68.35615-28.33734-68.35615-66.86541S53.9393,51.125,93.214,51.125c18.851,0,35.04366,6.28645,48.35229,20.01317a94.98065,94.98065,0,0,1,12.69049-19.249c-15.702-15.11492-37.39506-22.88666-62.03716-22.88666C39.2747,29.00249,0,66.53618,0,117.99037c0,51.45335,39.2747,88.98788,91.97019,88.98788,24.30269,0,45.58708-7.62234,61.1993-22.104a96.03267,96.03267,0,0,1-12.32816-19.54946C127.67017,178.55553,111.72513,184.85578,93.214,184.85578Z" style="fill:#66af94"/><path d="M98.13834,129.21616v28.95793H76.165V129.21616H46.696V108.435H76.165V79.47685H98.13834V108.435h27.23757a86.52142,86.52142,0,0,1,8.38354-28.6394C122.69156,68.38,109.2251,63.1521,93.5479,63.1521c-32.66237,0-56.84753,23.56628-56.84753,55.60767s24.18516,55.60766,56.84753,55.60766c15.39452,0,28.65508-5.23948,39.60864-16.24267a87.59272,87.59272,0,0,1-7.94459-28.9086Z" style="fill:#4497c6"/></svg>