<?xml version="1.0" encoding="utf-8"?>
<!-- Generator: Adobe Illustrator 17.0.0, SVG Export Plug-In . SVG Version: 6.00 Build 0)  -->
<!DOCTYPE svg PUBLIC "-//W3C//DTD SVG 1.1//EN" "http://www.w3.org/Graphics/SVG/1.1/DTD/svg11.dtd">
<svg version="1.1" id="Layer_1" xmlns="http://www.w3.org/2000/svg" xmlns:xlink="http://www.w3.org/1999/xlink" x="0px" y="0px"
	 width="75px" height="75px" viewBox="0 0 75 75" enable-background="new 0 0 75 75" xml:space="preserve">
<circle fill="#F79452" cx="37.782" cy="37.54" r="36.506"/>
<g>
	<polygon fill="#FFFFFF" points="34.089,47.207 34.089,27.709 44.771,37.458 	"/>
	<g>
		<g>
			<path fill="none" stroke="#3786C7" stroke-width="2.3931" stroke-linecap="round" stroke-miterlimit="10" d="M38.688,39.725"/>
		</g>
		<g>
			<path fill="none" stroke="#3786C7" stroke-width="2.3931" stroke-linecap="round" stroke-miterlimit="10" d="M18.346,25.711"/>
		</g>
		<g>
			<path fill="#FFFFFF" d="M55.45,52.458H21.217c-2.693,0-4.884-2.191-4.884-4.884V27.342c0-2.693,2.191-4.884,4.884-4.884H55.45
				c2.693,0,4.884,2.191,4.884,4.884v20.232C60.333,50.267,58.142,52.458,55.45,52.458z M21.217,25.458
				c-1.039,0-1.884,0.845-1.884,1.884v20.232c0,1.039,0.845,1.884,1.884,1.884H55.45c1.039,0,1.884-0.845,1.884-1.884V27.342
				c0-1.039-0.845-1.884-1.884-1.884H21.217z"/>
		</g>
		<g>
			<path fill="none" stroke="#3786C7" stroke-width="2.3931" stroke-linecap="round" stroke-miterlimit="10" d="M19.736,49.056"/>
		</g>
	</g>
</g>
</svg>
