<?xml version="1.0" encoding="utf-8"?>
<!-- Generator: Adobe Illustrator 17.0.0, SVG Export Plug-In . SVG Version: 6.00 Build 0)  -->
<!DOCTYPE svg PUBLIC "-//W3C//DTD SVG 1.1//EN" "http://www.w3.org/Graphics/SVG/1.1/DTD/svg11.dtd">
<svg version="1.1" id="Layer_1" xmlns="http://www.w3.org/2000/svg" xmlns:xlink="http://www.w3.org/1999/xlink" x="0px" y="0px"
	 width="28px" height="28px" viewBox="0 0 28 28" enable-background="new 0 0 28 28" xml:space="preserve">
<g>
	<path fill="#2CADE3" d="M14,27.929C6.32,27.929,0.071,21.68,0.071,14C0.071,6.32,6.32,0.071,14,0.071S27.929,6.32,27.929,14
		C27.929,21.68,21.68,27.929,14,27.929z M14,0.849C6.749,0.849,0.849,6.749,0.849,14s5.9,13.15,13.151,13.15
		c7.252,0,13.151-5.899,13.151-13.15S21.252,0.849,14,0.849z"/>
</g>
<g>
	<path fill="#2CADE3" d="M12.396,15.641H6.727v-3.208h5.669V6.72h3.208v5.713h5.669v3.208h-5.669v5.64h-3.208V15.641z"/>
</g>
</svg>
