<?xml version="1.0" encoding="utf-8"?>
<!-- Generator: Adobe Illustrator 17.0.0, SVG Export Plug-In . SVG Version: 6.00 Build 0)  -->
<!DOCTYPE svg PUBLIC "-//W3C//DTD SVG 1.1//EN" "http://www.w3.org/Graphics/SVG/1.1/DTD/svg11.dtd">
<svg version="1.1" id="Layer_1" xmlns="http://www.w3.org/2000/svg" xmlns:xlink="http://www.w3.org/1999/xlink" x="0px" y="0px"
	 width="75px" height="75px" viewBox="0 0 75 75" enable-background="new 0 0 75 75" xml:space="preserve">
<circle fill="#F79452" cx="37.782" cy="37.54" r="36.506"/>
<path fill="#FFFFFF" d="M55.033,22.958H21.634c-2.647,0-4.801,2.154-4.801,4.801v19.398c0,2.647,2.154,4.801,4.801,4.801h33.398
	c2.647,0,4.801-2.154,4.801-4.801V27.759C59.833,25.112,57.68,22.958,55.033,22.958z M56.833,46.86L46.786,35.85l10.047-6.923V46.86
	z M55.033,25.958c0.488,0,0.929,0.196,1.254,0.512L38.777,38.533L20.82,26.162c0.246-0.126,0.519-0.203,0.814-0.203H55.033z
	 M19.931,47.715c-0.058-0.177-0.097-0.362-0.097-0.558V28.317l10.929,7.53L19.931,47.715z M21.956,48.958l10.746-11.775l5.413,3.729
	c0.016,0.011,0.035,0.015,0.052,0.025c0.066,0.041,0.135,0.073,0.207,0.1c0.031,0.012,0.061,0.026,0.093,0.034
	c0.098,0.027,0.199,0.044,0.302,0.045c0.003,0,0.005,0.001,0.008,0.001c0,0,0.001,0,0.001,0s0.001,0,0.001,0
	c0.003,0,0.005-0.001,0.008-0.001c0.102-0.001,0.203-0.018,0.302-0.045c0.031-0.009,0.061-0.023,0.091-0.034
	c0.073-0.027,0.143-0.06,0.211-0.102c0.016-0.01,0.034-0.013,0.05-0.024l5.406-3.725l10.673,11.696
	c-0.156,0.044-0.317,0.075-0.487,0.075H21.956z"/>
</svg>
