<?xml version="1.0" encoding="utf-8"?>
<!-- Generator: Adobe Illustrator 17.0.0, SVG Export Plug-In . SVG Version: 6.00 Build 0)  -->
<!DOCTYPE svg PUBLIC "-//W3C//DTD SVG 1.1//EN" "http://www.w3.org/Graphics/SVG/1.1/DTD/svg11.dtd">
<svg version="1.1" id="Layer_1" xmlns="http://www.w3.org/2000/svg" xmlns:xlink="http://www.w3.org/1999/xlink" x="0px" y="0px"
	 width="46px" height="33px" viewBox="0 0 46 33" enable-background="new 0 0 46 33" xml:space="preserve">
<g>
	<path fill="#39B54A" d="M40.314,1.933c-0.897-0.422-2.462-0.704-4.95,0.277c-6.667-2.69-14.2-1.43-20.24,3.405
		c-0.001,0.001-0.003,0.001-0.004,0.002c-0.003,0.003-0.006,0.005-0.009,0.008c-0.004,0.003-0.008,0.006-0.012,0.009
		c-0.002,0.001-0.002,0.004-0.004,0.005C8.807,10.704,6.283,19.164,7.38,24.68c-1.481,2.184-1.545,3.784-1.327,4.756
		c0.248,1.103,0.955,1.984,2.101,2.619c0.355,0.197,0.794,0.159,1.11-0.095l9.766-7.84c0.247-0.198,0.385-0.501,0.373-0.817
		c-0.006-0.166-0.095-1.646-1.28-2.554c-0.654-0.502-1.473-0.708-2.441-0.619c-0.554-1.49,0.444-4.179,4.81-7.797
		c4.476-3.481,7.318-3.874,8.652-3.01c-0.297,0.926-0.272,1.77,0.076,2.517c0.63,1.353,2.056,1.76,2.217,1.802
		c0.306,0.08,0.632,0.01,0.879-0.188l9.766-7.84c0.317-0.254,0.448-0.675,0.333-1.064C42.045,3.294,41.338,2.414,40.314,1.933z
		 M40.256,4.517l-8.718,6.998c-0.191-0.117-0.398-0.29-0.507-0.53c-0.166-0.367-0.097-0.877,0.206-1.516
		c0.161-0.339,0.118-0.739-0.11-1.037c-0.03-0.039-0.063-0.076-0.098-0.11c-1.081-1.211-4.361-3.331-11.777,2.441
		c-0.001,0.001-0.003,0.001-0.004,0.002c-0.002,0.002-0.004,0.004-0.007,0.006c-0.002,0.002-0.005,0.003-0.007,0.005
		c-0.001,0.001-0.002,0.002-0.003,0.003c-7.215,5.971-5.888,9.628-4.932,10.969c0.026,0.042,0.055,0.082,0.087,0.121
		c0.242,0.287,0.623,0.415,0.988,0.332c0.689-0.158,1.202-0.115,1.524,0.127c0.211,0.159,0.336,0.399,0.408,0.609l-8.719,6.999
		c-0.312-0.272-0.505-0.584-0.585-0.941c-0.113-0.502-0.107-1.614,1.195-3.43c0.299-0.417,0.288-0.768,0.198-1.017
		c-1.127-4.902,1.155-12.696,6.965-17.366c5.542-4.442,12.448-5.568,18.499-3.019c0.223,0.127,0.551,0.194,0.996,0.003
		c2.054-0.879,3.142-0.644,3.607-0.425C39.795,3.898,40.057,4.154,40.256,4.517z"/>
</g>
</svg>
