<?xml version="1.0" encoding="utf-8"?>
<!-- Generator: Adobe Illustrator 17.0.0, SVG Export Plug-In . SVG Version: 6.00 Build 0)  -->
<!DOCTYPE svg PUBLIC "-//W3C//DTD SVG 1.1//EN" "http://www.w3.org/Graphics/SVG/1.1/DTD/svg11.dtd">
<svg version="1.1" id="Layer_1" xmlns="http://www.w3.org/2000/svg" xmlns:xlink="http://www.w3.org/1999/xlink" x="0px" y="0px"
	 width="39px" height="33px" viewBox="0 0 39 33" enable-background="new 0 0 39 33" xml:space="preserve">
<g>
	<g>
		<g>
			<path fill="#676767" d="M22.121,32.675l-14.22-9.472H0.9V9.953h7.175l14.046-9.487V32.675z M2.9,21.203h5.607l11.614,7.737V4.231
				L8.688,11.953H2.9V21.203z"/>
		</g>
	</g>
</g>
<path fill="#676767" d="M33.081,16.57l4.91-4.91c0.391-0.391,0.391-1.023,0-1.414s-1.023-0.391-1.414,0l-4.91,4.91l-4.91-4.91
	c-0.391-0.391-1.023-0.391-1.414,0s-0.391,1.023,0,1.414l4.91,4.91l-4.91,4.91c-0.391,0.391-0.391,1.023,0,1.414
	c0.195,0.195,0.451,0.293,0.707,0.293s0.512-0.098,0.707-0.293l4.91-4.91l4.91,4.91c0.195,0.195,0.451,0.293,0.707,0.293
	s0.512-0.098,0.707-0.293c0.391-0.391,0.391-1.023,0-1.414L33.081,16.57z"/>
</svg>
