<?xml version="1.0" encoding="utf-8"?>
<!-- Generator: Adobe Illustrator 17.0.0, SVG Export Plug-In . SVG Version: 6.00 Build 0)  -->
<!DOCTYPE svg PUBLIC "-//W3C//DTD SVG 1.1//EN" "http://www.w3.org/Graphics/SVG/1.1/DTD/svg11.dtd">
<svg version="1.1" id="Layer_1" xmlns="http://www.w3.org/2000/svg" xmlns:xlink="http://www.w3.org/1999/xlink" x="0px" y="0px"
	 width="39px" height="33px" viewBox="0 0 39 33" enable-background="new 0 0 39 33" xml:space="preserve">
<g>
	<g>
		<g>
			<path fill="#676767" d="M22.121,32.675l-14.22-9.472H0.9V9.953h7.175l14.046-9.487V32.675z M2.9,21.203h5.607l11.614,7.737V4.231
				L8.688,11.953H2.9V21.203z"/>
		</g>
	</g>
</g>
<g>
	<g>
		<g>
			<g>
				<path fill="#676767" d="M24.901,13.273c-0.256,0-0.512-0.098-0.707-0.293c-0.391-0.391-0.391-1.023,0-1.414l7.858-7.858
					c0.391-0.391,1.023-0.391,1.414,0s0.391,1.023,0,1.414l-7.858,7.858C25.413,13.175,25.157,13.273,24.901,13.273z"/>
			</g>
		</g>
	</g>
	<g>
		<g>
			<path fill="#676767" d="M32.773,31.506c-0.256,0-0.512-0.098-0.707-0.293l-7.858-7.858c-0.391-0.391-0.391-1.023,0-1.414
				s1.023-0.391,1.414,0l7.858,7.858c0.391,0.391,0.391,1.023,0,1.414C33.285,31.409,33.029,31.506,32.773,31.506z"/>
		</g>
	</g>
	<g>
		<g>
			<path fill="#676767" d="M36.047,18.722H24.901c-0.552,0-1-0.448-1-1s0.448-1,1-1h11.146c0.552,0,1,0.448,1,1
				S36.599,18.722,36.047,18.722z"/>
		</g>
	</g>
</g>
</svg>
