<svg id="b14bf9bd-44d6-4426-ab20-5541f5de5467" data-name="Layer 1" xmlns="http://www.w3.org/2000/svg" viewBox="0 0 70.66596 70.66595"><rect x="1.00003" y="1.00002" width="68.66595" height="68.66595" rx="14.74612" style="fill:#4092c2"/><path d="M54.9199,70.666H15.74619A15.764,15.764,0,0,1,0,54.91989V15.74619A15.764,15.764,0,0,1,15.74619,0H54.9199A15.764,15.764,0,0,1,70.666,15.74619v39.1737A15.764,15.764,0,0,1,54.9199,70.666ZM15.74619,2A13.76176,13.76176,0,0,0,2,15.74619v39.1737A13.76174,13.76174,0,0,0,15.74619,68.666H54.9199A13.76171,13.76171,0,0,0,68.666,54.91989V15.74619A13.76172,13.76172,0,0,0,54.9199,2Z" style="fill:#fff"/><path d="M47.71714,42.94919c0,6.18847-4.667,11.53808-14.52637,11.53808-5.19238,0-10.38477-1.57324-13.793-4.248l2.93652-5.29688a17.11511,17.11511,0,0,0,10.751,3.61914c4.87793,0,7.76172-2.15039,7.76172-5.55957,0-3.30371-2.41211-5.4541-7.97168-5.4541H29.51889v-4.668l8.33887-9.91211H21.181V17.25192H46.19663v4.5625l-8.916,10.59375C44.20346,33.29977,47.71714,37.44333,47.71714,42.94919Z" style="fill:#fff"/></svg>