<svg id="b80eabff-59ca-4685-8849-39879f0059a6" data-name="Layer 1" xmlns="http://www.w3.org/2000/svg" viewBox="0 0 112.89076 112.89071"><rect x="0.67395" y="0.67389" width="111.54288" height="111.54288" rx="14.74612" style="fill:#fff"/><path d="M102.27951,112.89071H10.61131A10.62334,10.62334,0,0,1,.00006,102.27937V10.61125A10.62328,10.62328,0,0,1,10.61131,0h91.6682a10.62328,10.62328,0,0,1,10.61125,10.61125v91.66812A10.62334,10.62334,0,0,1,102.27951,112.89071ZM10.61131,1.34779a9.274,9.274,0,0,0-9.26346,9.26346v91.66812a9.274,9.274,0,0,0,9.26346,9.26354h91.6682a9.274,9.274,0,0,0,9.26346-9.26354V10.61125a9.274,9.274,0,0,0-9.26346-9.26346Z" style="fill:#4497c6"/><path d="M90.03618,31.98676h-16.243V42.267h16.243ZM85.53159,33.3599l-3.61638,2.88877L78.29756,33.3599Zm3.1325,7.53417h-13.498V33.3599h.93114l5.818,4.64519,5.8169-4.64519h.932Z" style="fill:#4092c2"/><path d="M51.50112,89.74411a11.30227,11.30227,0,0,0,3.2691,6.86928,1.18478,1.18478,0,0,0,.83664.34539,1.197,1.197,0,0,0,.35865-.05557,1.18475,1.18475,0,0,0,.80885-.92483,3.605,3.605,0,0,1,3.55177-2.98875h5.91751a3.58569,3.58569,0,0,1,3.36171,2.31144,1.187,1.187,0,0,0,2.03383.31024,11.31008,11.31008,0,0,0-7.70887-18.29513c-.40092-.0402-.79139-.06062-1.1593-.06062A11.332,11.332,0,0,0,51.50112,89.74411ZM62.771,91.27658a4.29023,4.29023,0,1,1,4.2897-4.29075A4.29548,4.29548,0,0,1,62.771,91.27658ZM56.132,82.5749a8.96886,8.96886,0,0,1,6.639-2.9475c.28983,0,.60007.01642.92588.04841a8.94037,8.94037,0,0,1,7.044,12.979,5.92556,5.92556,0,0,0-3.68542-1.97742,5.66272,5.66272,0,1,0-8.40154.185A5.96328,5.96328,0,0,0,55.244,93.45015a8.96705,8.96705,0,0,1,.888-10.87525Z" style="fill:#4092c2"/><path d="M21.93377,67.19926a1.18521,1.18521,0,0,0,2.01846-.84463V65.31235a7.17565,7.17565,0,0,1,6.37593-7.13742c.01452-.00105.02778-.003.04209-.00505a7.104,7.104,0,0,1,.76992-.04315H41.45324A7.19471,7.19471,0,0,1,48.641,65.31235v1.04228a1.186,1.186,0,0,0,2.01951.84358,20.45187,20.45187,0,1,0-28.72671.001ZM37.38749,55.75362H35.20066a7.87935,7.87935,0,1,1,2.18683,0ZM36.29618,34.58276a18.09861,18.09861,0,0,1,18.0794,18.07751A17.90541,17.90541,0,0,1,50.8217,63.409,9.57778,9.57778,0,0,0,42.373,55.801a9.93667,9.93667,0,1,0-12.15368.0021c-.03094.00295-.06062.004-.09261.00821a1.10015,1.10015,0,0,0-.14288.01642,9.54677,9.54677,0,0,0-8.21341,7.58237,17.90617,17.90617,0,0,1-3.55387-10.74981A18.09812,18.09812,0,0,1,36.29618,34.58276Z" style="fill:#4092c2"/><path d="M81.91415,51.983A15.32365,15.32365,0,1,0,66.592,36.65889,15.34122,15.34122,0,0,0,81.91415,51.983Zm0-28.27545A12.95233,12.95233,0,1,1,68.963,36.65889,12.966,12.966,0,0,1,81.91415,23.70751Z" style="fill:#4092c2"/><path d="M12.33505,52.66027A23.929,23.929,0,0,0,46.604,74.27607l4.68434,5.21368A14.63971,14.63971,0,0,0,62.771,103.22988a14.6757,14.6757,0,0,0,10.85674-4.81377,14.647,14.647,0,0,0-9.37373-24.405,14.78784,14.78784,0,0,0-8.61643,1.80251L51.462,71.16946a24.05026,24.05026,0,0,0,8.79828-18.50919,23.729,23.729,0,0,0-.68551-5.6359l5.68114-2.00919a18.63206,18.63206,0,1,0-1.98436-8.35629,18.32045,18.32045,0,0,0,.24037,2.93823l-5.93814,2.09739a23.944,23.944,0,0,0-45.2387,10.96576ZM36.29618,31.07014a21.67829,21.67829,0,0,1,19.6005,12.59147,1.186,1.186,0,0,0,1.47165.62175l7.89387-2.78922a1.18706,1.18706,0,0,0,.76255-1.37083,16.25658,16.25658,0,1,1,.9404,2.94539,1.1854,1.1854,0,0,0-1.48406-.64847l-7.73054,2.73365a1.18489,1.18489,0,0,0-.74193,1.45123,21.45469,21.45469,0,0,1-7.98016,23.45325,1.18592,1.18592,0,0,0-.18182,1.74926l5.68111,6.31825a1.18612,1.18612,0,0,0,1.52826.20248,12.43525,12.43525,0,0,1,7.96459-1.95784A12.27544,12.27544,0,0,1,62.771,100.85783a12.42189,12.42189,0,0,1-1.25085-.06167,12.27543,12.27543,0,0,1-7.89471-20.40305c.03388-.032.10776-.10481.1387-.13975a1.18494,1.18494,0,0,0-.01242-1.57141l-5.98844-6.6647a1.18831,1.18831,0,0,0-1.43565-.25594,21.27882,21.27882,0,0,1-10.03146,2.49224,21.59171,21.59171,0,0,1,0-43.18341Z" style="fill:#4092c2"/></svg>