<svg id="f380f0a6-0db9-4c6c-8009-aa64eb373530" data-name="Layer 1" xmlns="http://www.w3.org/2000/svg" viewBox="0 0 112.89076 112.89071"><rect x="0.67392" y="0.67391" width="111.54288" height="111.54288" rx="14.74612" style="fill:#fff"/><path d="M102.27937,112.89071H10.61125A10.62333,10.62333,0,0,1,0,102.27941V10.61129A10.62332,10.62332,0,0,1,10.61125,0h91.66812a10.62332,10.62332,0,0,1,10.61125,10.61129v91.66812A10.62333,10.62333,0,0,1,102.27937,112.89071ZM10.61125,1.34779a9.274,9.274,0,0,0-9.26346,9.2635v91.66812a9.274,9.274,0,0,0,9.26346,9.2635h91.66812a9.274,9.274,0,0,0,9.26346-9.2635V10.61129a9.274,9.274,0,0,0-9.26346-9.2635Z" style="fill:#4497c6"/><path d="M95.79085,50.70462l-9.45851-2.178V32.96751a1.34979,1.34979,0,0,0-1.34941-1.34941H19.63743A1.34979,1.34979,0,0,0,18.288,32.96751V68.06342a1.34963,1.34963,0,0,0,1.34941,1.34921h5.70142l-.03426.14634a1.34818,1.34818,0,0,0,1.01294,1.61739l.70311.16152L87.92579,85.34437a1.42631,1.42631,0,0,0,.19872.02277,1.34818,1.34818,0,0,0,1.3017-1.01294l6.07857-26.39364,1.298-5.63875a1.34847,1.34847,0,0,0-1.012-1.61719ZM86.33234,60.623c.01129.00389.02082.00953.03231.01342l-.03231.14051ZM61.38872,71.16312a10.0805,10.0805,0,0,0,5.363-1.54888c.10081-.06286.193-.13506.291-.20161H84.34442l-.65952,2.864c-.208-.02083-.41432-.03231-.62041-.03425a7.34107,7.34107,0,0,0-6.48821,3.74775,7.55829,7.55829,0,0,0-.48652,1.05107L42.94849,69.41263H55.68263q.38473.25952.7905.48477c.20336.11209.41042.21659.6206.31546a9.95265,9.95265,0,0,0,1.99923.68793A10.16328,10.16328,0,0,0,61.38872,71.16312Zm-1.5736-1.75049H62.965A8.5201,8.5201,0,0,1,59.81512,69.41263ZM20.98664,66.714V34.31692H83.6345V66.714ZM87.11155,82.40054,30.68471,69.41263H39.1733a.62373.62373,0,0,0,.475.53225L76.36805,78.3963a.61542.61542,0,0,0,.14167.01693.62981.62981,0,0,0,.60523-.45792,6.09311,6.09311,0,0,1,5.79074-4.45281,6.29054,6.29054,0,0,1,1.15363.095.62861.62861,0,0,0,.72317-.47893l.89986-3.90733a1.31387,1.31387,0,0,0,.26506-.21095,1.33159,1.33159,0,0,0,.38493-.93684V66.389l1.38814-6.03011a.62922.62922,0,0,0-.44176-.7469,6.02066,6.02066,0,0,1-.94638-.35925V51.29564l7.53812,1.73512Z" style="fill:#4092c2"/><path d="M78.46533,42.85571a6.41351,6.41351,0,0,1-5.98651-6.2107.663.663,0,0,0-.66128-.63112H32.80282a.66294.66294,0,0,0-.66127.63112,6.4134,6.4134,0,0,1-5.98555,6.2107.661.661,0,0,0-.62819.66128V57.512a.663.663,0,0,0,.62722.66147,6.41358,6.41358,0,0,1,5.98652,6.21246.66294.66294,0,0,0,.66127.63111H71.81754a.663.663,0,0,0,.66128-.63111,6.41344,6.41344,0,0,1,5.98554-6.21246.66385.66385,0,0,0,.62819-.66147l.00078-13.995A.66085.66085,0,0,0,78.46533,42.85571Zm-.69844,14.05378a7.72962,7.72962,0,0,0-6.55653,6.78285H33.41a7.73156,7.73156,0,0,0-6.5575-6.78285v-12.79a7.72753,7.72753,0,0,0,6.5575-6.7809H71.21036a7.72656,7.72656,0,0,0,6.55847,6.7809Z" style="fill:#4092c2"/><path d="M52.64562,39.6838A10.8363,10.8363,0,1,0,63.16471,50.51449,10.69007,10.69007,0,0,0,52.64562,39.6838Zm0,19.98522a9.16009,9.16009,0,1,1,8.841-9.15453A9.01231,9.01231,0,0,1,52.64562,59.669Z" style="fill:#4092c2"/></svg>