<?xml version="1.0" encoding="utf-8"?>
<!-- Generator: Adobe Illustrator 17.0.0, SVG Export Plug-In . SVG Version: 6.00 Build 0)  -->
<!DOCTYPE svg PUBLIC "-//W3C//DTD SVG 1.1//EN" "http://www.w3.org/Graphics/SVG/1.1/DTD/svg11.dtd">
<svg version="1.1" id="Layer_1" xmlns="http://www.w3.org/2000/svg" xmlns:xlink="http://www.w3.org/1999/xlink" x="0px" y="0px"
	 width="182px" height="50px" viewBox="0 0 182 50" enable-background="new 0 0 182 50" xml:space="preserve">
<g>
	<path fill="#2CADE3" d="M83.866,12.432c3.959,0,7.241,1.433,9.844,4.299c2.368,2.615,3.551,5.71,3.551,9.285
		c0,3.591-1.251,6.729-3.753,9.415c-2.501,2.685-5.715,4.028-9.643,4.028c-3.945,0-7.168-1.343-9.668-4.028
		c-2.5-2.685-3.75-5.823-3.75-9.415c0-3.559,1.183-6.646,3.55-9.261C76.599,13.873,79.889,12.432,83.866,12.432z M83.854,15.668
		c-2.75,0-5.114,1.016-7.088,3.048c-1.976,2.032-2.964,4.489-2.964,7.371c0,1.858,0.451,3.59,1.35,5.197
		c0.903,1.607,2.119,2.847,3.653,3.722c1.533,0.873,3.216,1.31,5.049,1.31c1.833,0,3.517-0.437,5.051-1.31
		c1.532-0.875,2.75-2.115,3.65-3.722c0.902-1.606,1.353-3.339,1.353-5.197c0-2.882-0.992-5.34-2.977-7.371
		C88.948,16.684,86.588,15.668,83.854,15.668z"/>
	<path fill="#2CADE3" d="M52.45,12.432c3.96,0,7.242,1.433,9.846,4.299c2.367,2.615,3.55,5.71,3.55,9.285
		c0,3.591-1.25,6.729-3.751,9.415c-2.502,2.685-5.715,4.028-9.645,4.028c-3.944,0-7.167-1.343-9.668-4.028
		c-2.501-2.685-3.751-5.823-3.751-9.415c0-3.559,1.183-6.646,3.55-9.261C45.185,13.873,48.475,12.432,52.45,12.432z M52.44,15.668
		c-2.751,0-5.114,1.016-7.09,3.048c-1.975,2.032-2.964,4.489-2.964,7.371c0,1.858,0.452,3.59,1.352,5.197
		c0.901,1.607,2.118,2.847,3.651,3.722c1.533,0.873,3.217,1.31,5.051,1.31c1.832,0,3.516-0.437,5.049-1.31
		c1.533-0.875,2.751-2.115,3.651-3.722c0.901-1.606,1.352-3.339,1.352-5.197c0-2.882-0.992-5.34-2.976-7.371
		C57.532,16.684,55.173,15.668,52.44,15.668z"/>
	<path fill="#2CADE3" d="M131.6,10.069h5.244v2.859H131.6h-3.308h-4.512v-2.859h4.512H131.6z"/>
	<path fill="#2CADE3" d="M151.351,12.432c3.961,0,7.243,1.433,9.846,4.299c2.366,2.615,3.55,5.71,3.55,9.285
		c0,3.591-1.25,6.729-3.75,9.415c-2.502,2.685-5.715,4.028-9.645,4.028c-3.943,0-7.166-1.343-9.667-4.028
		c-2.502-2.685-3.753-5.823-3.753-9.415c0-3.559,1.184-6.646,3.551-9.261C144.086,13.873,147.376,12.432,151.351,12.432z
		 M151.339,15.668c-2.751,0-5.112,1.016-7.088,3.048c-1.976,2.032-2.964,4.489-2.964,7.371c0,1.858,0.451,3.59,1.352,5.197
		c0.9,1.607,2.116,2.847,3.65,3.722c1.534,0.873,3.217,1.31,5.05,1.31s3.516-0.437,5.049-1.31c1.535-0.875,2.751-2.115,3.653-3.722
		c0.9-1.606,1.35-3.339,1.35-5.197c0-2.882-0.99-5.34-2.974-7.371C156.432,16.684,154.074,15.668,151.339,15.668z"/>
	<path fill="#2CADE3" d="M168,13.093h3.379v3.757c1.009-1.481,2.072-2.587,3.19-3.319c1.118-0.732,2.284-1.098,3.496-1.098
		c0.913,0,1.89,0.291,2.93,0.874l-1.724,2.788c-0.694-0.3-1.275-0.449-1.749-0.449c-1.103,0-2.165,0.453-3.19,1.358
		c-1.023,0.905-1.802,2.311-2.339,4.217c-0.409,1.465-0.614,4.426-0.614,8.882v9.481H168V13.093z"/>
	<path fill="#2CADE3" d="M62.801,39.571l3.208-0.107V3.549h-3.208V39.571z M62.801,29.502"/>
	<path fill="#2CADE3" d="M122.072,32.101c-0.832,1.211-1.864,2.188-3.122,2.905c-1.533,0.873-3.217,1.31-5.049,1.31
		c-1.834,0-3.517-0.437-5.051-1.31c-1.534-0.875-2.751-2.115-3.651-3.722c-0.901-1.606-1.352-3.339-1.352-5.197
		c0-2.882,0.988-5.34,2.964-7.371c1.976-2.032,4.339-3.048,7.09-3.048c2.733,0,5.093,1.016,7.075,3.048
		c0.368,0.378,0.69,0.774,0.99,1.179l2.413-2.413c-0.2-0.252-0.401-0.506-0.621-0.751c-2.604-2.866-5.886-4.299-9.845-4.299
		c-3.976,0-7.266,1.441-9.87,4.323c-2.367,2.615-3.55,5.702-3.55,9.261c0,3.591,1.25,6.729,3.753,9.415
		c2.5,2.685,5.723,4.028,9.668,4.028c3.927,0,7.143-1.343,9.642-4.028c0.303-0.325,0.585-0.655,0.851-0.994L122.072,32.101z"/>
	<path fill="#F79452" d="M37.622,40.499c-0.691-0.74-1.297-1.513-1.863-2.299c-1.052,1.105-2.242,2.05-3.585,2.816
		c-2.551,1.455-5.352,2.181-8.401,2.181c-3.051,0-5.85-0.726-8.4-2.181c-2.551-1.453-4.575-3.517-6.074-6.19
		c-1.499-2.671-2.248-5.554-2.248-8.645c0-4.795,1.643-8.883,4.93-12.263c3.287-3.38,7.218-5.069,11.792-5.069
		c4.549,0,8.473,1.689,11.772,5.069c0.023,0.026,0.045,0.051,0.069,0.075c0.518-0.736,1.072-1.457,1.699-2.15
		c0.663-0.734,1.364-1.384,2.086-1.996c-4.206-4.237-9.398-6.383-15.608-6.383c-6.613,0-12.087,2.398-16.416,7.192
		C3.438,15.007,1.47,20.141,1.47,26.063c0,5.973,2.079,11.194,6.241,15.662c4.159,4.466,9.52,6.699,16.081,6.699
		c6.307,0,11.497-2.101,15.592-6.261C38.777,41.648,38.183,41.102,37.622,40.499z"/>
	<path fill="#2CADE3" d="M31.727,29.027h-4.633v4.633c0,0.883-0.716,1.598-1.599,1.598h-2.967c-0.883,0-1.599-0.715-1.599-1.598
		v-4.633h-4.633c-0.883,0-1.599-0.716-1.599-1.599v-2.968c0-0.883,0.716-1.598,1.599-1.598h4.633v-4.633
		c0-0.883,0.716-1.599,1.599-1.599h2.967c0.883,0,1.599,0.716,1.599,1.599v4.633h4.633c0.09,0,0.176,0.012,0.262,0.026
		c0.335-2.218,1.017-4.322,1.993-6.254c-2.485-2.646-6.004-4.31-9.921-4.31c-7.521,0-13.619,6.099-13.619,13.62
		c0,7.522,6.098,13.619,13.619,13.619c3.917,0,7.437-1.663,9.921-4.31c-0.977-1.932-1.659-4.036-1.993-6.254
		C31.903,29.015,31.816,29.027,31.727,29.027z"/>
	<path fill="#2CADE3" d="M137.932,36.941c-0.091-0.115-0.185-0.228-0.274-0.345c-0.103,0.002-0.207,0.004-0.292,0.004
		c-2.873,0-5.836-2.026-5.836-7.627V1.974h-3.209c0,0,0,20.627,0,27.111c0,6.488,3.975,10.567,8.526,10.567
		c0.354,0,0.718-0.025,1.084-0.06V36.941z"/>
</g>
</svg>
