<svg id="e96ad169-27b7-467c-a773-1f3098fa965d" data-name="Layer 1" xmlns="http://www.w3.org/2000/svg" viewBox="0 0 112.89076 112.89071"><path d="M97.41853,1.965H15.47224A13.52237,13.52237,0,0,0,1.9654,15.47181V97.41859a13.52206,13.52206,0,0,0,13.50684,13.50684H97.41853a13.52206,13.52206,0,0,0,13.50683-13.50684V15.47181A13.52237,13.52237,0,0,0,97.41853,1.965ZM81.65534,65.71644V76.49476a18.75106,18.75106,0,1,1-37.50195,0V64.2223c-4.01416-.56836-7.79981-2.86816-11.23779-6.88232a2.03945,2.03945,0,0,1-.57618-2.062c-4.70214-5.96191-7.45117-14.21972-7.45117-20.52929,0-9.74268,4.354-10.66358,11.46533-12.38233A3.00316,3.00316,0,0,1,38.8819,20.8722a2.71792,2.71792,0,0,1,2.75,2.75489,2.794,2.794,0,0,1-2.75,2.75341,2.58349,2.58349,0,0,1-1.61084-.688c-7.11376,1.60546-8.94628,2.0625-8.94628,9.05615,0,5.50781,2.64013,12.959,6.543,18.34863a2.493,2.493,0,0,1,1.94385.80615c2.07031,2.40918,5.27979,5.27735,9.17432,5.27735,3.78564,0,7.002-2.86817,9.064-5.27735a2.42023,2.42023,0,0,1,1.83252-.80615c4.01465-5.38965,6.6543-12.84082,6.6543-18.34863,0-6.99365-1.95313-7.34082-8.9458-9.05615a2.91139,2.91139,0,0,1-1.603.688,2.79563,2.79563,0,0,1-2.7583-2.75341,2.71977,2.71977,0,0,1,2.7583-2.75489,2.67446,2.67446,0,0,1,2.40088,1.49414c7.23145,1.71875,11.58545,2.75,11.58545,12.38233,0,6.30957-2.86914,14.45263-7.45313,20.52929a1.86333,1.86333,0,0,1-.57617,1.95166c-3.438,4.12452-7.34082,6.42432-11.34668,6.99268l.11133,12.27246a15.25459,15.25459,0,1,0,30.5083,0V65.71644a10.32412,10.32412,0,1,1,3.4375,0Z" style="fill:#fff"/><path d="M97.41853.00013H15.47224A15.48945,15.48945,0,0,0,.00007,15.47181V97.41859a15.48986,15.48986,0,0,0,15.47217,15.47217H97.41853a15.48986,15.48986,0,0,0,15.47216-15.47217V15.47181A15.48944,15.48944,0,0,0,97.41853.00013Zm13.50683,97.41846a13.52206,13.52206,0,0,1-13.50683,13.50684H15.47224A13.52206,13.52206,0,0,1,1.9654,97.41859V15.47181A13.52237,13.52237,0,0,1,15.47224,1.965H97.41853a13.52237,13.52237,0,0,1,13.50683,13.50683Z" style="fill:#4497c6"/><path d="M79.93317,45.30189a10.27568,10.27568,0,0,0-1.71533,20.41455V76.49476a15.25459,15.25459,0,1,1-30.5083,0L47.59821,64.2223c4.00586-.56836,7.90869-2.86816,11.34668-6.99268a1.86333,1.86333,0,0,0,.57617-1.95166c4.584-6.07666,7.45313-14.21972,7.45313-20.52929,0-9.63233-4.354-10.66358-11.58545-12.38233a2.67446,2.67446,0,0,0-2.40088-1.49414,2.71977,2.71977,0,0,0-2.7583,2.75489,2.79563,2.79563,0,0,0,2.7583,2.75341,2.91139,2.91139,0,0,0,1.603-.688c6.99267,1.71533,8.9458,2.0625,8.9458,9.05615,0,5.50781-2.63965,12.959-6.6543,18.34863a2.42023,2.42023,0,0,0-1.83252.80615c-2.062,2.40918-5.27832,5.27735-9.064,5.27735-3.89453,0-7.104-2.86817-9.17432-5.27735a2.493,2.493,0,0,0-1.94385-.80615c-3.90283-5.38965-6.543-12.84082-6.543-18.34863,0-6.99365,1.83252-7.45069,8.94628-9.05615a2.58349,2.58349,0,0,0,1.61084.688,2.794,2.794,0,0,0,2.75-2.75341,2.71792,2.71792,0,0,0-2.75-2.75489,3.00316,3.00316,0,0,0-2.52832,1.49414C29.24226,24.08509,24.88825,25.006,24.88825,34.74867c0,6.30957,2.749,14.56738,7.45117,20.52929a2.03945,2.03945,0,0,0,.57618,2.062c3.438,4.01416,7.22363,6.314,11.23779,6.88232V76.49476a18.75106,18.75106,0,1,0,37.50195,0V65.71644a10.14639,10.14639,0,0,0,8.605-10.09082A10.28254,10.28254,0,0,0,79.93317,45.30189Zm0,17.20264a6.88111,6.88111,0,1,1,6.88233-6.87891A6.90021,6.90021,0,0,1,79.93317,62.50453Z" style="fill:#4092c2"/><path d="M79.93317,48.74232a6.88111,6.88111,0,1,0,6.88233,6.8833A6.904,6.904,0,0,0,79.93317,48.74232Zm0,12.04346A5.29432,5.29432,0,0,1,74.773,55.62562a5.21241,5.21241,0,0,1,5.16015-5.16016,5.13507,5.13507,0,0,1,5.1587,5.16016A5.21244,5.21244,0,0,1,79.93317,60.78578Z" style="fill:#fff"/><path d="M79.93317,50.46546A5.21241,5.21241,0,0,0,74.773,55.62562a5.29432,5.29432,0,0,0,5.16015,5.16016,5.21244,5.21244,0,0,0,5.1587-5.16016A5.13507,5.13507,0,0,0,79.93317,50.46546Z" style="fill:#4092c2"/></svg>