<?xml version="1.0" encoding="utf-8"?>
<!-- Generator: Adobe Illustrator 17.0.0, SVG Export Plug-In . SVG Version: 6.00 Build 0)  -->
<!DOCTYPE svg PUBLIC "-//W3C//DTD SVG 1.1//EN" "http://www.w3.org/Graphics/SVG/1.1/DTD/svg11.dtd">
<svg version="1.1" id="Layer_1" xmlns="http://www.w3.org/2000/svg" xmlns:xlink="http://www.w3.org/1999/xlink" x="0px" y="0px"
	 width="110px" height="110px" viewBox="0 0 110 110" enable-background="new 0 0 110 110" xml:space="preserve">
<g>
	<path fill="#2CADE3" d="M92.203,94.172c-0.043-0.023-0.086-0.044-0.129-0.065c-0.175-0.081-16.931-8.104-21.411-19.887
		c10.988-6.207,18.489-18.485,18.489-32.593c0-20.347-15.595-36.9-34.763-36.9c-19.169,0-34.764,16.553-34.764,36.9
		c0,14.267,7.673,26.66,18.865,32.797c-4.596,11.671-21.157,19.602-21.33,19.682c-0.044,0.02-0.087,0.042-0.129,0.065
		c-5.484,2.984-10.164,6.445-14.169,10.644c-0.988,1.036,3.125,3.307,3.597,2.818c3.672-3.804,7.881-7.005,12.612-9.586
		c0.798-0.381,7.616-3.718,13.926-9.29c2.931,1.515,9.98,4.518,19.888,4.518c6.472,0,14.159-1.293,22.69-5.117
		c6.486,5.93,13.764,9.494,14.59,9.889c4.772,2.603,9.013,5.838,12.708,9.686c0.44,0.458,4.074-2.396,3.684-2.813
		C102.548,100.645,97.785,97.209,92.203,94.172z M54.389,9.108c11.785,0,22.016,7.223,27.053,17.745
		c-5.57-4.464-12.828-5.589-17.499-5.304c-1.454-0.05-16.213,0.179-23.917,10.922c-1.681-0.115-4.975-0.652-6.963-3.009
		c-1.738-2.061-2.206-5.215-1.422-9.359C37.211,13.366,45.342,9.108,54.389,9.108z M24.004,41.628
		c0-5.239,1.171-10.189,3.236-14.577c0.426,2.009,1.237,3.767,2.474,5.234c3.907,4.632,10.284,4.638,11.458,4.591
		c0.75,0,1.448-0.384,1.849-1.017c6.36-10.024,20.804-9.941,20.942-9.931c0.059,0.001,0.118-0.001,0.175-0.004
		c0.75-0.047,18.439-0.923,20.631,15.846c-0.072,17.866-13.671,32.378-30.38,32.378C37.635,74.148,24.004,59.56,24.004,41.628z
		 M36.333,85.516c2.52-2.711,4.728-5.804,6.127-9.226c3.722,1.447,7.739,2.238,11.928,2.238c4.337,0,8.488-0.855,12.32-2.402
		c1.278,3.195,3.261,6.108,5.555,8.692C54.8,92.083,41.594,87.9,36.333,85.516z"/>
</g>
<g>
	<path fill="#676767" d="M57.715,37.684v12.078h11.579v5.208H57.715v12.189h-5.43V54.97h-11.58v-5.208h11.58V37.684H57.715z"/>
</g>
<g>
	<path fill="#676767" d="M98.645,109.912H11.39c-6.207,0-11.258-5.067-11.258-11.296V11.439c0-6.229,5.05-11.297,11.258-11.297
		h87.254c6.208,0,11.258,5.068,11.258,11.297v87.177C109.902,104.845,104.852,109.912,98.645,109.912z M11.39,1.217
		c-5.615,0-10.183,4.586-10.183,10.223v87.177c0,5.636,4.568,10.223,10.183,10.223h87.254c5.615,0,10.184-4.587,10.184-10.223
		V11.439c0-5.637-4.569-10.223-10.184-10.223H11.39z"/>
</g>
</svg>
