<?xml version="1.0" encoding="utf-8"?>
<!-- Generator: Adobe Illustrator 17.0.0, SVG Export Plug-In . SVG Version: 6.00 Build 0)  -->
<!DOCTYPE svg PUBLIC "-//W3C//DTD SVG 1.1//EN" "http://www.w3.org/Graphics/SVG/1.1/DTD/svg11.dtd">
<svg version="1.1" id="Layer_1" xmlns="http://www.w3.org/2000/svg" xmlns:xlink="http://www.w3.org/1999/xlink" x="0px" y="0px"
	 width="110px" height="110px" viewBox="0 0 110 110" enable-background="new 0 0 110 110" xml:space="preserve">
<path fill="#2CADE3" d="M81.076,70.185c-0.037-0.021-0.074-0.039-0.111-0.057c-0.119-0.054-11.25-5.381-14.448-13.2
	c7.534-4.394,12.652-12.892,12.652-22.636c0-14.235-10.92-25.817-24.344-25.817c-13.423,0-24.344,11.582-24.344,25.817
	c0,9.854,5.235,18.433,12.909,22.782c-3.274,7.738-14.272,13.001-14.389,13.054c-0.038,0.018-0.075,0.036-0.111,0.057
	C16.984,76.662,9.503,88.607,5.793,107.85l3.597,1.273c3.478-18.042,10.432-29.688,21.259-35.6c0.607-0.29,5.176-2.541,9.481-6.29
	c2.184,1.093,7.008,3.039,13.665,3.039c4.45,0,9.722-0.882,15.562-3.461c4.439,4.005,9.331,6.411,9.96,6.712
	c11.287,6.163,18.633,18.01,21.83,35.211l3.618-1.184C101.345,89.153,93.436,76.909,81.076,70.185z M54.825,12.249
	c7.462,0,14.007,4.28,17.614,10.669c-3.705-2.384-8.099-3.021-11.037-2.847c-1.074,0.032-11.231,0.161-16.66,7.516
	c-1.145-0.103-3.122-0.493-4.33-1.926c-1.108-1.315-1.409-3.354-0.915-6.048C43.266,15.098,48.74,12.249,54.825,12.249z
	 M34.256,34.292c0-3.174,0.634-6.191,1.766-8.92c0.34,1.013,0.833,1.927,1.504,2.723c2.808,3.329,7.366,3.33,8.187,3.299
	c0.646,0,1.247-0.331,1.593-0.876c4.269-6.726,14.035-6.67,14.113-6.671c0.05,0,0.102,0,0.149-0.003
	c0.513-0.027,12.344-0.605,13.823,10.573c-0.063,12.097-9.263,21.918-20.567,21.918C43.483,56.333,34.256,46.446,34.256,34.292z
	 M43.008,64.411c1.537-1.714,2.886-3.638,3.803-5.747c2.511,0.931,5.207,1.444,8.014,1.444c2.908,0,5.697-0.545,8.285-1.541
	c0.832,1.946,2.035,3.735,3.414,5.35C55.344,68.401,46.797,66.019,43.008,64.411z"/>
<g>
	<path fill="#676767" d="M98.645,109.912H11.39c-6.207,0-11.258-5.067-11.258-11.296V11.439c0-6.229,5.05-11.297,11.258-11.297
		h87.254c6.208,0,11.258,5.068,11.258,11.297v87.177C109.902,104.845,104.852,109.912,98.645,109.912z M11.39,1.217
		c-5.615,0-10.183,4.586-10.183,10.223v87.177c0,5.636,4.568,10.223,10.183,10.223h87.254c5.615,0,10.184-4.587,10.184-10.223
		V11.439c0-5.637-4.569-10.223-10.184-10.223H11.39z"/>
</g>
</svg>
